<svg width="64" height="64" viewBox="0 0 64 64" fill="none" xmlns="http://www.w3.org/2000/svg">
<g clip-path="url(#clip0_67_111)">
<g filter="url(#filter0_d_67_111)">
<path fill-rule="evenodd" clip-rule="evenodd" d="M60.2938 39.8436V43.088L60.2933 43.0882C60.967 43.2252 61.4746 43.8165 61.4746 44.5197V45.6864C61.4746 46.3942 60.967 46.9833 60.2933 47.1203V47.1499H52.5386C52.1095 49.7961 49.7953 51.8259 47.0036 51.8259C44.2118 51.8259 41.8977 49.7961 41.4709 47.1499H20.9387C20.5095 49.7961 18.1954 51.8259 15.4036 51.8259C12.6119 51.8259 10.2954 49.7939 9.86861 47.1499H5.3626L4.47893 47.1522C3.66218 47.1522 3 46.4947 3 45.6887V44.522C3 43.7137 3.66448 43.0585 4.47893 43.0585H5.3626V29.9096C5.3626 25.8797 8.67585 22.6011 12.7481 22.6011L19.5636 22.5965V20.2654C12.3748 19.5873 6.28348 18.3201 4.44 16.4958C4.16545 16.2264 4.10084 15.8109 4.28081 15.4707C4.46078 15.1327 4.83918 14.9455 5.22218 15.014C11.1009 16.0551 20.2424 16.1944 28.4052 16.1944C30.1402 16.1944 31.8453 16.1899 33.4834 16.183C33.9003 16.1817 34.3129 16.1803 34.7207 16.1789C35.8 16.1752 36.8456 16.1716 37.8487 16.1716L45.4533 16.1739H45.4556C50.6031 16.1739 53.7732 16.1396 57.8846 15.941C58.2907 15.925 58.6668 16.1853 58.7798 16.5757C58.8929 16.9661 58.7198 17.384 58.3622 17.5826C57.7693 17.9114 57.031 18.2173 56.1565 18.5004V20.2745C56.1565 21.0645 55.7319 21.7472 55.019 22.1033C54.7168 22.254 54.3984 22.3294 54.0823 22.3294C53.6532 22.3294 53.2263 22.1924 52.8572 21.9207L49.9986 19.8225C46.3578 20.3476 41.8496 20.6809 36.6676 20.7997V22.6034L42.8671 22.6011C46.8173 22.6011 50.4604 23.9094 53.3859 26.1081L53.6282 26.2953C56.0761 28.2016 57.9958 30.7428 59.1332 33.6676L59.1402 33.6813L59.1563 33.7201C59.1724 33.7655 59.1899 33.8096 59.2073 33.8535L59.2262 33.9014C59.2346 33.9231 59.2429 33.9448 59.2509 33.9667L59.6039 34.8731H59.5532C60.0331 36.4485 60.2938 38.1175 60.2938 39.8436ZM44.0511 33.1218H56.9645H56.9648C55.9727 31.0967 54.5422 29.2997 52.7679 27.8613H44.0511C43.8919 27.8613 43.7558 27.9961 43.7558 28.1536V32.8296C43.7558 32.9871 43.8919 33.1218 44.0511 33.1218ZM54.3872 20.2745C54.3872 20.3955 54.3342 20.4822 54.2234 20.537C54.1127 20.5918 54.0135 20.5827 53.9143 20.5096L52.4284 19.4205C53.1252 19.2881 53.7782 19.1465 54.3872 18.9981L54.3872 20.2745ZM32.3453 17.9422L32.3451 17.9422C31.0617 17.9461 29.7445 17.9502 28.4082 17.9502C23.1638 17.9502 17.5161 17.8908 12.5533 17.5734C17.3198 18.4639 24.1749 19.0941 32.2385 19.0941C39.6488 19.0941 46.1301 18.6649 50.8345 17.9091C49.2309 17.9274 47.4982 17.9342 45.4586 17.9342H45.4563L37.8493 17.9274C36.4696 17.9274 35.0091 17.9319 33.491 17.9388L32.3453 17.9422ZM21.3363 20.4228C24.8917 20.7037 28.6432 20.8475 32.2379 20.8475C33.14 20.8475 34.026 20.8407 34.8959 20.8293V22.601H21.3363V20.4228ZM11.5651 46.2735C11.5651 48.3695 13.2864 50.0728 15.4044 50.0728C17.5224 50.0728 19.2436 48.3695 19.2436 46.2735C19.2436 44.1776 17.5224 42.4743 15.4044 42.4743C13.2864 42.4743 11.5651 44.1776 11.5651 46.2735ZM47.0041 50.0728C44.8861 50.0728 43.1649 48.3695 43.1649 46.2735C43.1649 44.1776 44.8861 42.4743 47.0041 42.4743C49.1221 42.4743 50.8434 44.1776 50.8434 46.2735C50.8434 48.3695 49.1221 50.0728 47.0041 50.0728ZM47.0042 40.7207C49.7959 40.7207 52.1124 42.7505 52.5392 45.3967H59.7031V44.8122H54.3872V43.0587H58.5218V39.8463C58.5218 38.1064 58.2265 36.4375 57.6912 34.8757H44.0508C42.911 34.8757 41.9835 33.9579 41.9835 32.83V28.154C41.9835 27.0261 42.911 26.1083 44.0508 26.1083H50.089C47.9268 24.9918 45.4696 24.3548 42.8671 24.3548H12.7487C9.65237 24.3548 7.1352 26.848 7.1352 29.9098V33.1223H16.0363V34.8757H7.1352V43.0587H8.3165V44.8122H4.7726V45.3967H9.86926C10.2984 42.7505 12.6125 40.7207 15.4043 40.7207C18.1961 40.7207 20.5125 42.7505 20.9393 45.3967H41.4691C41.8983 42.7505 44.2124 40.7207 47.0042 40.7207Z" fill="white"/>
<path d="M60.2938 43.088L60.3762 43.3765L60.5938 43.3143V43.088H60.2938ZM60.2933 43.0882L60.2108 42.7997L60.2335 43.3821L60.2933 43.0882ZM60.2933 47.1203L60.2335 46.8263L59.9933 46.8751V47.1203H60.2933ZM60.2933 47.1499V47.4499H60.5933V47.1499H60.2933ZM52.5386 47.1499V46.8499H52.2834L52.2425 47.1019L52.5386 47.1499ZM41.4709 47.1499L41.767 47.1022L41.7263 46.8499H41.4709V47.1499ZM20.9387 47.1499V46.8499H20.6834L20.6426 47.1019L20.9387 47.1499ZM9.86861 47.1499L10.1648 47.1021L10.1241 46.8499H9.86861V47.1499ZM5.3626 47.1499L5.3626 46.8499L5.36182 46.8499L5.3626 47.1499ZM4.47893 47.1522L4.47893 47.4522L4.4797 47.4522L4.47893 47.1522ZM5.3626 43.0585V43.3585H5.6626V43.0585H5.3626ZM12.7481 22.6011L12.7481 22.9011L12.7483 22.9011L12.7481 22.6011ZM19.5636 22.5965L19.5638 22.8965L19.8636 22.8963V22.5965H19.5636ZM19.5636 20.2654H19.8636V19.9923L19.5918 19.9667L19.5636 20.2654ZM4.44 16.4958L4.65102 16.2826L4.65011 16.2817L4.44 16.4958ZM4.28081 15.4707L4.01602 15.3296L4.01563 15.3304L4.28081 15.4707ZM5.22218 15.014L5.16937 15.3093L5.16987 15.3094L5.22218 15.014ZM33.4834 16.183L33.4825 15.883L33.4822 15.883L33.4834 16.183ZM34.7207 16.1789L34.7217 16.4789L34.7217 16.4789L34.7207 16.1789ZM37.8487 16.1716L37.8488 15.8716H37.8487V16.1716ZM45.4533 16.1739L45.4532 16.4739H45.4533V16.1739ZM57.8846 15.941L57.8728 15.6412L57.8702 15.6413L57.8846 15.941ZM58.7798 16.5757L59.068 16.4922L59.068 16.4922L58.7798 16.5757ZM58.3622 17.5826L58.5077 17.845L58.5079 17.8449L58.3622 17.5826ZM56.1565 18.5004L56.0641 18.215L55.8565 18.2822V18.5004H56.1565ZM55.019 22.1033L55.1529 22.3718L55.1531 22.3717L55.019 22.1033ZM52.8572 21.9207L53.035 21.6791L53.0347 21.6788L52.8572 21.9207ZM49.9986 19.8225L50.1761 19.5806L50.0772 19.508L49.9557 19.5255L49.9986 19.8225ZM36.6676 20.7997L36.6607 20.4998L36.3676 20.5065V20.7997H36.6676ZM36.6676 22.6034H36.3676V22.9035L36.6677 22.9034L36.6676 22.6034ZM42.8671 22.6011L42.8671 22.3011L42.8669 22.3011L42.8671 22.6011ZM53.3859 26.1081L53.5694 25.8707L53.5662 25.8683L53.3859 26.1081ZM53.6282 26.2953L53.8125 26.0586L53.8116 26.0579L53.6282 26.2953ZM59.1332 33.6676L58.8536 33.7763L58.8589 33.7899L58.8655 33.8029L59.1332 33.6676ZM59.1402 33.6813L59.4171 33.566L59.4129 33.5558L59.4079 33.5459L59.1402 33.6813ZM59.1563 33.7201L59.439 33.6197L59.4363 33.6122L59.4333 33.6048L59.1563 33.7201ZM59.2073 33.8535L59.4864 33.7435L59.4862 33.743L59.2073 33.8535ZM59.2262 33.9014L59.5056 33.7923L59.5053 33.7915L59.2262 33.9014ZM59.2509 33.9667L58.969 34.0695L58.9714 34.0755L59.2509 33.9667ZM59.6039 34.8731V35.1731H60.0427L59.8835 34.7642L59.6039 34.8731ZM59.5532 34.8731V34.5731H59.1482L59.2662 34.9605L59.5532 34.8731ZM56.9648 33.1218V33.4218H57.4458L57.2342 32.9898L56.9648 33.1218ZM52.7679 27.8613L52.9568 27.6283L52.8742 27.5613H52.7679V27.8613ZM54.2234 20.537L54.0904 20.2681L54.0904 20.2681L54.2234 20.537ZM54.3872 20.2745L54.0872 20.2745V20.2745H54.3872ZM53.9143 20.5096L54.0922 20.2681L54.0916 20.2677L53.9143 20.5096ZM52.4284 19.4205L52.3724 19.1258L51.6946 19.2546L52.2511 19.6625L52.4284 19.4205ZM54.3872 18.9981L54.6872 18.9981L54.6873 18.6163L54.3162 18.7067L54.3872 18.9981ZM32.3451 17.9422L32.346 18.2422L32.3462 18.2422L32.3451 17.9422ZM32.3453 17.9422L32.3444 17.6422L32.3442 17.6422L32.3453 17.9422ZM12.5533 17.5734L12.5724 17.274L12.4982 17.8683L12.5533 17.5734ZM50.8345 17.9091L50.8821 18.2053L50.8311 17.6091L50.8345 17.9091ZM45.4563 17.9342L45.456 18.2342H45.4563V17.9342ZM37.8493 17.9274L37.8496 17.6274H37.8493V17.9274ZM33.491 17.9388L33.4919 18.2388L33.4923 18.2388L33.491 17.9388ZM21.3363 20.4228L21.3599 20.1238L21.0363 20.0982V20.4228H21.3363ZM34.8959 20.8293H35.1959V20.5253L34.8919 20.5293L34.8959 20.8293ZM34.8959 22.601V22.901H35.1959V22.601H34.8959ZM21.3363 22.601H21.0363V22.901H21.3363V22.601ZM52.5392 45.3967L52.243 45.4445L52.2837 45.6967H52.5392V45.3967ZM59.7031 45.3967V45.6967H60.0031V45.3967H59.7031ZM59.7031 44.8122H60.0031V44.5122H59.7031V44.8122ZM54.3872 44.8122H54.0872V45.1122H54.3872V44.8122ZM54.3872 43.0587V42.7587H54.0872V43.0587H54.3872ZM58.5218 43.0587V43.3587H58.8218V43.0587H58.5218ZM57.6912 34.8757L57.975 34.7785L57.9055 34.5757H57.6912V34.8757ZM50.089 26.1083V26.4083L50.2266 25.8417L50.089 26.1083ZM7.1352 33.1223H6.8352V33.4223H7.1352V33.1223ZM16.0363 33.1223H16.3363V32.8223H16.0363V33.1223ZM16.0363 34.8757V35.1757H16.3363V34.8757H16.0363ZM7.1352 34.8757V34.5757H6.8352V34.8757H7.1352ZM7.1352 43.0587H6.8352V43.3587H7.1352V43.0587ZM8.3165 43.0587H8.6165V42.7587H8.3165V43.0587ZM8.3165 44.8122V45.1122H8.6165V44.8122H8.3165ZM4.7726 44.8122V44.5122H4.4726V44.8122H4.7726ZM4.7726 45.3967H4.4726V45.6967H4.7726V45.3967ZM9.86926 45.3967V45.6967H10.1245L10.1654 45.4447L9.86926 45.3967ZM20.9393 45.3967L20.6432 45.4445L20.6838 45.6967H20.9393V45.3967ZM41.4691 45.3967V45.6967H41.7244L41.7653 45.4447L41.4691 45.3967ZM60.5938 43.088V39.8436H59.9938V43.088H60.5938ZM60.3757 43.3766L60.3762 43.3765L60.2114 42.7996L60.2108 42.7997L60.3757 43.3766ZM61.7746 44.5197C61.7746 43.6684 61.1611 42.9585 60.353 42.7942L60.2335 43.3821C60.7728 43.4918 61.1746 43.9646 61.1746 44.5197H61.7746ZM61.7746 45.6864V44.5197H61.1746V45.6864H61.7746ZM60.353 47.4142C61.1611 47.2499 61.7746 46.5423 61.7746 45.6864H61.1746C61.1746 46.2461 60.7728 46.7166 60.2335 46.8263L60.353 47.4142ZM60.5933 47.1499V47.1203H59.9933V47.1499H60.5933ZM52.5386 47.4499H60.2933V46.8499H52.5386V47.4499ZM47.0036 52.1259C49.9435 52.1259 52.3822 49.9884 52.8348 47.198L52.2425 47.1019C51.8367 49.6039 49.6472 51.5259 47.0036 51.5259V52.1259ZM41.1747 47.1977C41.6248 49.9884 44.0637 52.1259 47.0036 52.1259V51.5259C44.36 51.5259 42.1706 49.6039 41.767 47.1022L41.1747 47.1977ZM20.9387 47.4499H41.4709V46.8499H20.9387V47.4499ZM15.4036 52.1259C18.3436 52.1259 20.7823 49.9884 21.2348 47.198L20.6426 47.1019C20.2368 49.6039 18.0472 51.5259 15.4036 51.5259V52.1259ZM9.57244 47.1978C10.0226 49.9862 12.4638 52.1259 15.4036 52.1259V51.5259C12.76 51.5259 10.5683 49.6016 10.1648 47.1021L9.57244 47.1978ZM5.3626 47.4499H9.86861V46.8499H5.3626V47.4499ZM4.4797 47.4522L5.36337 47.4499L5.36182 46.8499L4.47815 46.8522L4.4797 47.4522ZM2.7 45.6887C2.7 46.663 3.49916 47.4522 4.47893 47.4522V46.8522C3.8252 46.8522 3.3 46.3263 3.3 45.6887H2.7ZM2.7 44.522V45.6887H3.3V44.522H2.7ZM4.47893 42.7585C3.50207 42.7585 2.7 43.5448 2.7 44.522H3.3C3.3 43.8827 3.82689 43.3585 4.47893 43.3585V42.7585ZM5.3626 42.7585H4.47893V43.3585H5.3626V42.7585ZM5.0626 29.9096V43.0585H5.6626V29.9096H5.0626ZM12.7481 22.3011C8.51313 22.3011 5.0626 25.7111 5.0626 29.9096H5.6626C5.6626 26.0484 8.83856 22.9011 12.7481 22.9011V22.3011ZM19.5634 22.2965L12.7479 22.3011L12.7483 22.9011L19.5638 22.8965L19.5634 22.2965ZM19.2636 20.2654V22.5965H19.8636V20.2654H19.2636ZM4.22899 16.7091C4.73076 17.2056 5.49917 17.6449 6.45619 18.0367C7.418 18.4305 8.59298 18.7853 9.928 19.1023C12.5983 19.7363 15.9333 20.2243 19.5354 20.564L19.5918 19.9667C16.005 19.6284 12.7 19.1437 10.0666 18.5185C8.74976 18.2059 7.60696 17.8595 6.68353 17.4814C5.75529 17.1014 5.07098 16.6982 4.65102 16.2826L4.22899 16.7091ZM4.01563 15.3304C3.77361 15.7879 3.86059 16.3476 4.22989 16.7099L4.65011 16.2817C4.4703 16.1052 4.42807 15.8338 4.54599 15.6109L4.01563 15.3304ZM5.275 14.7187C4.76306 14.6272 4.25679 14.8776 4.01602 15.3296L4.54559 15.6117C4.66476 15.3879 4.9153 15.2639 5.16937 15.3093L5.275 14.7187ZM28.4052 15.8944C20.2361 15.8944 11.1224 15.7543 5.2745 14.7186L5.16987 15.3094C11.0795 16.356 20.2487 16.4944 28.4052 16.4944V15.8944ZM33.4822 15.883C31.8444 15.8899 30.1397 15.8944 28.4052 15.8944V16.4944C30.1407 16.4944 31.8463 16.4898 33.4847 16.483L33.4822 15.883ZM34.7197 15.8789C34.3119 15.8803 33.8994 15.8817 33.4825 15.883L33.4843 16.483C33.9013 16.4817 34.314 16.4803 34.7217 16.4789L34.7197 15.8789ZM37.8487 15.8716C36.845 15.8716 35.7989 15.8752 34.7197 15.8789L34.7217 16.4789C35.8012 16.4752 36.8462 16.4716 37.8487 16.4716V15.8716ZM45.4534 15.8739L37.8488 15.8716L37.8486 16.4716L45.4532 16.4739L45.4534 15.8739ZM45.4556 15.8739H45.4533V16.4739H45.4556V15.8739ZM57.8702 15.6413C53.7659 15.8396 50.6015 15.8739 45.4556 15.8739V16.4739C50.6047 16.4739 53.7804 16.4396 57.8991 16.2406L57.8702 15.6413ZM59.068 16.4922C58.915 15.9638 58.4109 15.62 57.8728 15.6412L57.8965 16.2407C58.1705 16.2299 58.4186 16.4067 58.4917 16.6591L59.068 16.4922ZM58.5079 17.8449C58.9869 17.5788 59.2202 17.018 59.068 16.4922L58.4917 16.6591C58.5655 16.9142 58.4528 17.1891 58.2166 17.3203L58.5079 17.8449ZM56.2489 18.7858C57.1352 18.4989 57.8928 18.1859 58.5077 17.845L58.2167 17.3202C57.6458 17.6368 56.9267 17.9357 56.0641 18.215L56.2489 18.7858ZM56.4565 20.2745V18.5004H55.8565V20.2745H56.4565ZM55.1531 22.3717C55.9666 21.9653 56.4565 21.1794 56.4565 20.2745H55.8565C55.8565 20.9496 55.4973 21.529 54.8849 21.835L55.1531 22.3717ZM54.0823 22.6294C54.4467 22.6294 54.8107 22.5424 55.1529 22.3718L54.8852 21.8349C54.6229 21.9656 54.3502 22.0294 54.0823 22.0294V22.6294ZM52.6794 22.1623C53.0994 22.4715 53.5885 22.6294 54.0823 22.6294V22.0294C53.7179 22.0294 53.3533 21.9133 53.035 21.6791L52.6794 22.1623ZM49.821 20.0643L52.6797 22.1625L53.0347 21.6788L50.1761 19.5806L49.821 20.0643ZM36.6745 21.0996C41.8643 20.9807 46.3852 20.6468 50.0414 20.1194L49.9557 19.5255C46.3304 20.0484 41.8349 20.3812 36.6607 20.4998L36.6745 21.0996ZM36.9676 22.6034V20.7997H36.3676V22.6034H36.9676ZM42.8669 22.3011L36.6675 22.3034L36.6677 22.9034L42.8672 22.9011L42.8669 22.3011ZM53.5662 25.8683C50.5905 23.6319 46.8846 22.3011 42.8671 22.3011V22.9011C46.75 22.9011 50.3303 24.1868 53.2057 26.3479L53.5662 25.8683ZM53.8116 26.0579L53.5694 25.8707L53.2025 26.3454L53.4447 26.5327L53.8116 26.0579ZM59.4128 33.5588C58.2553 30.5825 56.3023 27.9974 53.8125 26.0586L53.4439 26.532C55.85 28.4057 57.7362 30.9031 58.8536 33.7763L59.4128 33.5588ZM59.4079 33.5459L59.401 33.5322L58.8655 33.8029L58.8724 33.8166L59.4079 33.5459ZM59.4333 33.6048L59.4171 33.566L58.8632 33.7965L58.8793 33.8353L59.4333 33.6048ZM59.4862 33.743C59.4685 33.6984 59.4531 33.6592 59.439 33.6197L58.8736 33.8204C58.8918 33.8718 58.9113 33.9208 58.9283 33.9639L59.4862 33.743ZM59.5053 33.7915L59.4864 33.7435L58.9282 33.9635L58.9471 34.0114L59.5053 33.7915ZM59.5327 33.8638C59.5237 33.8391 59.5145 33.8152 59.5056 33.7923L58.9467 34.0105C58.9547 34.031 58.9621 34.0505 58.9691 34.0695L59.5327 33.8638ZM59.8835 34.7642L59.5304 33.8578L58.9714 34.0755L59.3244 34.982L59.8835 34.7642ZM59.5532 35.1731H59.6039V34.5731H59.5532V35.1731ZM60.5938 39.8436C60.5938 38.0872 60.3284 36.3887 59.8401 34.7857L59.2662 34.9605C59.7377 36.5083 59.9938 38.1479 59.9938 39.8436H60.5938ZM56.9645 32.8218H44.0511V33.4218H56.9645V32.8218ZM56.9648 32.8218H56.9645V33.4218H56.9648V32.8218ZM52.579 28.0944C54.3196 29.5055 55.7225 31.268 56.6954 33.2538L57.2342 32.9898C56.2228 30.9253 54.7647 29.094 52.9568 27.6283L52.579 28.0944ZM44.0511 28.1613H52.7679V27.5613H44.0511V28.1613ZM44.0558 28.1536C44.0558 28.1578 44.0548 28.1607 44.0543 28.1619C44.0538 28.1629 44.0538 28.1625 44.0548 28.1616C44.0557 28.1607 44.0564 28.1604 44.0561 28.1605C44.0557 28.1607 44.0539 28.1613 44.0511 28.1613V27.5613C43.7292 27.5613 43.4558 27.8274 43.4558 28.1536H44.0558ZM44.0558 32.8296V28.1536H43.4558V32.8296H44.0558ZM44.0511 32.8218C44.0539 32.8218 44.0557 32.8225 44.0561 32.8226C44.0564 32.8227 44.0557 32.8224 44.0548 32.8215C44.0538 32.8206 44.0539 32.8203 44.0543 32.8212C44.0548 32.8225 44.0558 32.8254 44.0558 32.8296H43.4558C43.4558 33.1557 43.7292 33.4218 44.0511 33.4218V32.8218ZM54.3565 20.8059C54.4521 20.7586 54.5398 20.6886 54.6017 20.5888C54.6637 20.489 54.6872 20.3798 54.6872 20.2745H54.0872C54.0872 20.2828 54.0863 20.2855 54.0867 20.2839C54.0872 20.282 54.0887 20.2776 54.092 20.2723C54.0953 20.267 54.0985 20.2638 54.0998 20.2628C54.1007 20.2619 54.0984 20.2642 54.0904 20.2681L54.3565 20.8059ZM53.7364 20.7512C53.8203 20.813 53.921 20.8596 54.0378 20.8701C54.1547 20.8805 54.2624 20.8525 54.3565 20.8059L54.0904 20.2681C54.0816 20.2725 54.0779 20.2731 54.079 20.2729C54.0805 20.2726 54.085 20.2719 54.0912 20.2725C54.0975 20.273 54.1017 20.2745 54.1029 20.275C54.1038 20.2753 54.1002 20.274 54.0922 20.2681L53.7364 20.7512ZM52.2511 19.6625L53.7369 20.7516L54.0916 20.2677L52.6058 19.1786L52.2511 19.6625ZM54.3162 18.7067C53.7124 18.8538 53.0645 18.9943 52.3724 19.1258L52.4844 19.7153C53.1859 19.5819 53.8439 19.4393 54.4583 19.2896L54.3162 18.7067ZM54.6872 20.2745L54.6872 18.9981L54.0872 18.9981L54.0872 20.2745L54.6872 20.2745ZM32.3462 18.2422L32.3464 18.2422L32.3442 17.6422L32.344 17.6422L32.3462 18.2422ZM28.4082 18.2502C29.745 18.2502 31.0627 18.2461 32.346 18.2422L32.3442 17.6422C31.0607 17.6461 29.7439 17.6502 28.4082 17.6502V18.2502ZM12.5341 17.8728C17.5071 18.1908 23.1629 18.2502 28.4082 18.2502V17.6502C23.1646 17.6502 17.5251 17.5908 12.5724 17.274L12.5341 17.8728ZM32.2385 18.7941C24.1885 18.7941 17.3525 18.1648 12.6084 17.2785L12.4982 17.8683C17.2872 18.763 24.1613 19.3941 32.2385 19.3941V18.7941ZM50.7869 17.6129C46.1037 18.3652 39.6396 18.7941 32.2385 18.7941V19.3941C39.6579 19.3941 46.1564 18.9645 50.8821 18.2053L50.7869 17.6129ZM45.4586 18.2342C47.4988 18.2342 49.2328 18.2274 50.8379 18.2091L50.8311 17.6091C49.2291 17.6274 47.4976 17.6342 45.4586 17.6342V18.2342ZM45.4563 18.2342H45.4586V17.6342H45.4563V18.2342ZM37.8491 18.2274L45.456 18.2342L45.4566 17.6342L37.8496 17.6274L37.8491 18.2274ZM33.4923 18.2388C35.0103 18.2319 36.4703 18.2274 37.8493 18.2274V17.6274C36.469 17.6274 35.008 17.6319 33.4896 17.6388L33.4923 18.2388ZM32.3462 18.2422L33.4919 18.2388L33.4901 17.6388L32.3444 17.6422L32.3462 18.2422ZM32.2379 20.5475C28.6509 20.5475 24.9072 20.404 21.3599 20.1238L21.3127 20.7219C24.8762 21.0034 28.6356 21.1475 32.2379 21.1475V20.5475ZM34.8919 20.5293C34.0232 20.5407 33.1385 20.5475 32.2379 20.5475V21.1475C33.1416 21.1475 34.0289 21.1407 34.8998 21.1292L34.8919 20.5293ZM35.1959 22.601V20.8293H34.5959V22.601H35.1959ZM21.3363 22.901H34.8959V22.301H21.3363V22.901ZM21.0363 20.4228V22.601H21.6363V20.4228H21.0363ZM15.4044 49.7728C13.4491 49.7728 11.8651 48.2008 11.8651 46.2735H11.2651C11.2651 48.5381 13.1236 50.3728 15.4044 50.3728V49.7728ZM18.9436 46.2735C18.9436 48.2008 17.3597 49.7728 15.4044 49.7728V50.3728C17.6851 50.3728 19.5436 48.5381 19.5436 46.2735H18.9436ZM15.4044 42.7743C17.3597 42.7743 18.9436 44.3462 18.9436 46.2735H19.5436C19.5436 44.0089 17.6851 42.1743 15.4044 42.1743V42.7743ZM11.8651 46.2735C11.8651 44.3462 13.4491 42.7743 15.4044 42.7743V42.1743C13.1236 42.1743 11.2651 44.0089 11.2651 46.2735H11.8651ZM42.8649 46.2735C42.8649 48.5381 44.7234 50.3728 47.0041 50.3728V49.7728C45.0488 49.7728 43.4649 48.2008 43.4649 46.2735H42.8649ZM47.0041 42.1743C44.7234 42.1743 42.8649 44.0089 42.8649 46.2735H43.4649C43.4649 44.3462 45.0488 42.7743 47.0041 42.7743V42.1743ZM51.1434 46.2735C51.1434 44.0089 49.2849 42.1743 47.0041 42.1743V42.7743C48.9594 42.7743 50.5434 44.3462 50.5434 46.2735H51.1434ZM47.0041 50.3728C49.2849 50.3728 51.1434 48.5381 51.1434 46.2735H50.5434C50.5434 48.2008 48.9594 49.7728 47.0041 49.7728V50.3728ZM52.8354 45.3489C52.3852 42.5581 49.9439 40.4207 47.0042 40.4207V41.0207C49.6479 41.0207 51.8395 42.9429 52.243 45.4445L52.8354 45.3489ZM59.7031 45.0967H52.5392V45.6967H59.7031V45.0967ZM59.4031 44.8122V45.3967H60.0031V44.8122H59.4031ZM54.3872 45.1122H59.7031V44.5122H54.3872V45.1122ZM54.0872 43.0587V44.8122H54.6872V43.0587H54.0872ZM58.5218 42.7587H54.3872V43.3587H58.5218V42.7587ZM58.2218 39.8463V43.0587H58.8218V39.8463H58.2218ZM57.4074 34.973C57.9324 36.5045 58.2218 38.1407 58.2218 39.8463H58.8218C58.8218 38.0722 58.5206 36.3704 57.975 34.7785L57.4074 34.973ZM44.0508 35.1757H57.6912V34.5757H44.0508V35.1757ZM41.6835 32.83C41.6835 34.1265 42.7483 35.1757 44.0508 35.1757V34.5757C43.0737 34.5757 42.2835 33.7893 42.2835 32.83H41.6835ZM41.6835 28.154V32.83H42.2835V28.154H41.6835ZM44.0508 25.8083C42.7483 25.8083 41.6835 26.8575 41.6835 28.154H42.2835C42.2835 27.1948 43.0737 26.4083 44.0508 26.4083V25.8083ZM50.089 25.8083H44.0508V26.4083H50.089V25.8083ZM42.8671 24.6548C45.4202 24.6548 47.8303 25.2796 49.9513 26.3748L50.2266 25.8417C48.0233 24.704 45.5191 24.0548 42.8671 24.0548V24.6548ZM12.7487 24.6548H42.8671V24.0548H12.7487V24.6548ZM7.4352 29.9098C7.4352 27.0166 9.81517 24.6548 12.7487 24.6548V24.0548C9.48957 24.0548 6.8352 26.6795 6.8352 29.9098H7.4352ZM7.4352 33.1223V29.9098H6.8352V33.1223H7.4352ZM16.0363 32.8223H7.1352V33.4223H16.0363V32.8223ZM16.3363 34.8757V33.1223H15.7363V34.8757H16.3363ZM7.1352 35.1757H16.0363V34.5757H7.1352V35.1757ZM7.4352 43.0587V34.8757H6.8352V43.0587H7.4352ZM8.3165 42.7587H7.1352V43.3587H8.3165V42.7587ZM8.6165 44.8122V43.0587H8.0165V44.8122H8.6165ZM4.7726 45.1122H8.3165V44.5122H4.7726V45.1122ZM5.0726 45.3967V44.8122H4.4726V45.3967H5.0726ZM9.86926 45.0967H4.7726V45.6967H9.86926V45.0967ZM15.4043 40.4207C12.4643 40.4207 10.0257 42.5583 9.57312 45.3487L10.1654 45.4447C10.5712 42.9427 12.7607 41.0207 15.4043 41.0207V40.4207ZM21.2355 45.3489C20.7853 42.5581 18.344 40.4207 15.4043 40.4207V41.0207C18.0481 41.0207 20.2397 42.9429 20.6432 45.4445L21.2355 45.3489ZM41.4691 45.0967H20.9393V45.6967H41.4691V45.0967ZM47.0042 40.4207C44.0642 40.4207 41.6256 42.5583 41.173 45.3487L41.7653 45.4447C42.171 42.9427 44.3606 41.0207 47.0042 41.0207V40.4207Z" fill="#222532"/>
<path fill-rule="evenodd" clip-rule="evenodd" d="M29.58 28.1537V32.8296C29.58 33.9575 28.6525 34.8754 27.5127 34.8754H21.6062C20.4664 34.8754 19.5389 33.9575 19.5389 32.8296V28.1537C19.5389 27.0257 20.4664 26.1079 21.6062 26.1079H27.5127C28.6525 26.1079 29.58 27.0257 29.58 28.1537ZM21.3109 28.1536V32.8296C21.3109 32.9894 21.447 33.1218 21.6062 33.1218H27.5127C27.6719 33.1218 27.808 32.9871 27.808 32.8296V28.1536C27.808 27.9961 27.6719 27.8613 27.5127 27.8613H21.6062C21.447 27.8613 21.3109 27.9961 21.3109 28.1536Z" fill="white"/>
<path d="M29.88 32.8296V28.1537H29.28V32.8296H29.88ZM27.5127 35.1754C28.8152 35.1754 29.88 34.1262 29.88 32.8296H29.28C29.28 33.7889 28.4898 34.5754 27.5127 34.5754V35.1754ZM21.6062 35.1754H27.5127V34.5754H21.6062V35.1754ZM19.2389 32.8296C19.2389 34.1262 20.3037 35.1754 21.6062 35.1754V34.5754C20.6292 34.5754 19.8389 33.7889 19.8389 32.8296H19.2389ZM19.2389 28.1537V32.8296H19.8389V28.1537H19.2389ZM21.6062 25.8079C20.3037 25.8079 19.2389 26.8571 19.2389 28.1537H19.8389C19.8389 27.1944 20.6292 26.4079 21.6062 26.4079V25.8079ZM27.5127 25.8079H21.6062V26.4079H27.5127V25.8079ZM29.88 28.1537C29.88 26.8571 28.8152 25.8079 27.5127 25.8079V26.4079C28.4898 26.4079 29.28 27.1944 29.28 28.1537H29.88ZM21.6109 32.8296V28.1536H21.0109V32.8296H21.6109ZM21.6062 32.8218C21.6107 32.8218 21.611 32.8235 21.6093 32.8218C21.6078 32.8204 21.6109 32.8225 21.6109 32.8296H21.0109C21.0109 33.1595 21.2858 33.4218 21.6062 33.4218V32.8218ZM27.5127 32.8218H21.6062V33.4218H27.5127V32.8218ZM27.508 32.8296C27.508 32.8254 27.509 32.8225 27.5095 32.8212C27.5099 32.8203 27.51 32.8206 27.509 32.8215C27.5081 32.8224 27.5074 32.8227 27.5076 32.8226C27.5081 32.8225 27.5099 32.8218 27.5127 32.8218V33.4218C27.8346 33.4218 28.108 33.1557 28.108 32.8296H27.508ZM27.508 28.1536V32.8296H28.108V28.1536H27.508ZM27.5127 28.1613C27.5099 28.1613 27.5081 28.1607 27.5076 28.1605C27.5074 28.1604 27.5081 28.1607 27.509 28.1616C27.51 28.1625 27.5099 28.1629 27.5095 28.1619C27.509 28.1607 27.508 28.1578 27.508 28.1536H28.108C28.108 27.8274 27.8346 27.5613 27.5127 27.5613V28.1613ZM21.6062 28.1613H27.5127V27.5613H21.6062V28.1613ZM21.6109 28.1536C21.6109 28.1578 21.6099 28.1607 21.6094 28.1619C21.6089 28.1629 21.6089 28.1625 21.6098 28.1616C21.6108 28.1607 21.6115 28.1604 21.6112 28.1605C21.6108 28.1607 21.609 28.1613 21.6062 28.1613V27.5613C21.2843 27.5613 21.0109 27.8274 21.0109 28.1536H21.6109Z" fill="#222532"/>
<path fill-rule="evenodd" clip-rule="evenodd" d="M32.8285 26.1079H38.735C39.8748 26.1079 40.8023 27.0257 40.8023 28.1537V32.8296C40.8023 33.9575 39.8748 34.8754 38.735 34.8754H32.8285C31.6887 34.8754 30.7612 33.9575 30.7612 32.8296V28.1537C30.7612 27.0257 31.6887 26.1079 32.8285 26.1079ZM38.735 33.1218C38.8942 33.1218 39.0304 32.9871 39.0304 32.8296V28.1536C39.0304 27.9961 38.8942 27.8613 38.735 27.8613H32.8285C32.6693 27.8613 32.5332 27.9961 32.5332 28.1536V32.8296C32.5332 32.9871 32.6693 33.1218 32.8285 33.1218H38.735Z" fill="white"/>
<path d="M38.735 25.8079H32.8285V26.4079H38.735V25.8079ZM41.1023 28.1537C41.1023 26.8571 40.0375 25.8079 38.735 25.8079V26.4079C39.7121 26.4079 40.5023 27.1944 40.5023 28.1537H41.1023ZM41.1023 32.8296V28.1537H40.5023V32.8296H41.1023ZM38.735 35.1754C40.0375 35.1754 41.1023 34.1262 41.1023 32.8296H40.5023C40.5023 33.7889 39.7121 34.5754 38.735 34.5754V35.1754ZM32.8285 35.1754H38.735V34.5754H32.8285V35.1754ZM30.4612 32.8296C30.4612 34.1262 31.526 35.1754 32.8285 35.1754V34.5754C31.8514 34.5754 31.0612 33.7889 31.0612 32.8296H30.4612ZM30.4612 28.1537V32.8296H31.0612V28.1537H30.4612ZM32.8285 25.8079C31.526 25.8079 30.4612 26.8571 30.4612 28.1537H31.0612C31.0612 27.1944 31.8514 26.4079 32.8285 26.4079V25.8079ZM38.7304 32.8296C38.7304 32.8254 38.7313 32.8225 38.7318 32.8212C38.7323 32.8203 38.7323 32.8206 38.7314 32.8215C38.7305 32.8224 38.7298 32.8227 38.73 32.8226C38.7304 32.8225 38.7322 32.8218 38.735 32.8218V33.4218C39.0569 33.4218 39.3304 33.1558 39.3304 32.8296H38.7304ZM38.7304 28.1536V32.8296H39.3304V28.1536H38.7304ZM38.735 28.1613C38.7322 28.1613 38.7304 28.1607 38.73 28.1605C38.7298 28.1604 38.7305 28.1607 38.7314 28.1616C38.7323 28.1625 38.7323 28.1629 38.7318 28.1619C38.7313 28.1607 38.7304 28.1578 38.7304 28.1536H39.3304C39.3304 27.8274 39.0569 27.5613 38.735 27.5613V28.1613ZM32.8285 28.1613H38.735V27.5613H32.8285V28.1613ZM32.8332 28.1536C32.8332 28.1578 32.8323 28.1607 32.8317 28.1619C32.8313 28.1629 32.8313 28.1625 32.8322 28.1616C32.8331 28.1607 32.8338 28.1604 32.8336 28.1605C32.8331 28.1607 32.8313 28.1613 32.8285 28.1613V27.5613C32.5066 27.5613 32.2332 27.8274 32.2332 28.1536H32.8332ZM32.8332 32.8296V28.1536H32.2332V32.8296H32.8332ZM32.8285 32.8218C32.8313 32.8218 32.8331 32.8225 32.8336 32.8226C32.8338 32.8227 32.8331 32.8224 32.8322 32.8215C32.8313 32.8206 32.8313 32.8203 32.8317 32.8212C32.8323 32.8225 32.8332 32.8254 32.8332 32.8296H32.2332C32.2332 33.1558 32.5066 33.4218 32.8285 33.4218V32.8218ZM38.735 32.8218H32.8285V33.4218H38.735V32.8218Z" fill="#222532"/>
<path fill-rule="evenodd" clip-rule="evenodd" d="M44.6415 46.2729C44.6415 44.9829 45.7006 43.9349 47.0041 43.9349C48.3077 43.9349 49.3667 44.9852 49.3667 46.2729C49.3667 47.5629 48.3077 48.6109 47.0041 48.6109C45.7006 48.6109 44.6415 47.5629 44.6415 46.2729ZM46.4135 46.2729C46.4135 46.5948 46.6788 46.8574 47.0041 46.8574C47.3294 46.8574 47.5948 46.5948 47.5948 46.2729C47.5948 45.951 47.3294 45.6884 47.0041 45.6884C46.6788 45.6884 46.4135 45.951 46.4135 46.2729Z" fill="white"/>
<path d="M47.0041 43.6349C45.5379 43.6349 44.3415 44.8143 44.3415 46.2729H44.9415C44.9415 45.1516 45.8633 44.2349 47.0041 44.2349V43.6349ZM49.6667 46.2729C49.6667 44.8168 48.4706 43.6349 47.0041 43.6349V44.2349C48.1448 44.2349 49.0667 45.1537 49.0667 46.2729H49.6667ZM47.0041 48.9109C48.4704 48.9109 49.6667 47.7316 49.6667 46.2729H49.0667C49.0667 47.3943 48.145 48.3109 47.0041 48.3109V48.9109ZM44.3415 46.2729C44.3415 47.7316 45.5379 48.9109 47.0041 48.9109V48.3109C45.8633 48.3109 44.9415 47.3943 44.9415 46.2729H44.3415ZM47.0041 46.5574C46.8415 46.5574 46.7135 46.4262 46.7135 46.2729H46.1135C46.1135 46.7635 46.5161 47.1574 47.0041 47.1574V46.5574ZM47.2948 46.2729C47.2948 46.4262 47.1667 46.5574 47.0041 46.5574V47.1574C47.4922 47.1574 47.8948 46.7635 47.8948 46.2729H47.2948ZM47.0041 45.9884C47.1667 45.9884 47.2948 46.1196 47.2948 46.2729H47.8948C47.8948 45.7823 47.4922 45.3884 47.0041 45.3884V45.9884ZM46.7135 46.2729C46.7135 46.1196 46.8415 45.9884 47.0041 45.9884V45.3884C46.5161 45.3884 46.1135 45.7823 46.1135 46.2729H46.7135Z" fill="#222532"/>
<path fill-rule="evenodd" clip-rule="evenodd" d="M13.0417 46.2729C13.0417 44.9829 14.1008 43.9349 15.4043 43.9349C16.7079 43.9349 17.7669 44.9852 17.7669 46.2729C17.7669 47.5629 16.7079 48.6109 15.4043 48.6109C14.1008 48.6109 13.0417 47.5606 13.0417 46.2729ZM14.8137 46.2729C14.8137 46.5948 15.079 46.8574 15.4044 46.8574C15.7297 46.8574 15.995 46.5948 15.995 46.2729C15.995 45.951 15.7297 45.6884 15.4044 45.6884C15.079 45.6884 14.8137 45.951 14.8137 46.2729Z" fill="white"/>
<path d="M15.4043 43.6349C13.9381 43.6349 12.7417 44.8143 12.7417 46.2729H13.3417C13.3417 45.1516 14.2635 44.2349 15.4043 44.2349V43.6349ZM18.0669 46.2729C18.0669 44.8168 16.8708 43.6349 15.4043 43.6349V44.2349C16.545 44.2349 17.4669 45.1537 17.4669 46.2729H18.0669ZM15.4043 48.9109C16.8706 48.9109 18.0669 47.7316 18.0669 46.2729H17.4669C17.4669 47.3943 16.5452 48.3109 15.4043 48.3109V48.9109ZM12.7417 46.2729C12.7417 47.7291 13.9379 48.9109 15.4043 48.9109V48.3109C14.2637 48.3109 13.3417 47.3922 13.3417 46.2729H12.7417ZM15.4044 46.5574C15.2418 46.5574 15.1137 46.4262 15.1137 46.2729H14.5137C14.5137 46.7635 14.9163 47.1574 15.4044 47.1574V46.5574ZM15.695 46.2729C15.695 46.4262 15.567 46.5574 15.4044 46.5574V47.1574C15.8924 47.1574 16.295 46.7635 16.295 46.2729H15.695ZM15.4044 45.9884C15.567 45.9884 15.695 46.1196 15.695 46.2729H16.295C16.295 45.7823 15.8924 45.3884 15.4044 45.3884V45.9884ZM15.1137 46.2729C15.1137 46.1196 15.2418 45.9884 15.4044 45.9884V45.3884C14.9163 45.3884 14.5137 45.7823 14.5137 46.2729H15.1137Z" fill="#222532"/>
<path d="M21.9015 43.0582H40.2116V44.8117H21.9015V43.0582Z" fill="white" stroke="#222532" stroke-width="0.6"/>
</g>
</g>
<defs>
<filter id="filter0_d_67_111" x="-1.29999" y="14.7" width="67.0745" height="45.426" filterUnits="userSpaceOnUse" color-interpolation-filters="sRGB">
<feFlood flood-opacity="0" result="BackgroundImageFix"/>
<feColorMatrix in="SourceAlpha" type="matrix" values="0 0 0 0 0 0 0 0 0 0 0 0 0 0 0 0 0 0 127 0" result="hardAlpha"/>
<feOffset dy="4"/>
<feGaussianBlur stdDeviation="2"/>
<feColorMatrix type="matrix" values="0 0 0 0 0 0 0 0 0 0 0 0 0 0 0 0 0 0 0.25 0"/>
<feBlend mode="normal" in2="BackgroundImageFix" result="effect1_dropShadow_67_111"/>
<feBlend mode="normal" in="SourceGraphic" in2="effect1_dropShadow_67_111" result="shape"/>
</filter>
<clipPath id="clip0_67_111">
<rect width="64" height="64" fill="white"/>
</clipPath>
</defs>
</svg>
