<svg width="64" height="64" viewBox="0 0 64 64" fill="none" xmlns="http://www.w3.org/2000/svg">
<g filter="url(#filter0_d_67_135)">
<path fill-rule="evenodd" clip-rule="evenodd" d="M24 30.1387C24 17.0578 29.4217 10.0006 31.6388 10C33.8563 10.0006 39.2777 17.0574 39.2777 30.1387C39.2777 43.3556 34.5346 52.3157 34.3333 52.6907L34.1371 53.0552H29.1406L28.9444 52.6907C28.7431 52.3156 24 43.3556 24 30.1387ZM30.9447 11.8438V11.8437L30.9448 11.8437L30.9447 11.8438ZM30.9447 11.8438V33.6113H32.3336V11.8437C34.1113 13.4305 37.8891 19.2033 37.8891 30.1388C37.8891 33.7881 37.5054 37.118 36.9585 40.026C36.1547 38.8819 34.6773 37.3246 31.9848 35.7864C25.4381 32.045 25.5176 26.9077 25.523 26.6908H25.5212C26.2035 17.9742 29.3648 13.2555 30.9447 11.8438ZM25.5248 33.7798C25.4658 32.9569 25.4311 32.1132 25.412 31.2538C26.4051 33.0992 28.1672 35.205 31.2953 36.9931C35.7407 39.534 36.5018 42.0474 36.5209 42.1107L36.5211 42.1113C36.1808 43.5974 35.8076 44.9464 35.4343 46.1339C34.8492 45.0974 33.818 43.8231 31.9968 42.738C26.5124 39.4724 25.6461 34.7345 25.5248 33.7798ZM32.3335 51.6668H33.2936L33.2934 51.6665C33.5694 51.0971 34.1284 49.8783 34.7639 48.1248C34.6284 47.5467 33.9792 45.5346 31.2847 43.9304C28.8352 42.4705 27.224 40.7327 26.1598 39.1042C27.297 45.766 29.3595 50.3787 29.9845 51.6668H30.9446V46.8055H32.3335V51.6668Z" fill="white"/>
<path d="M31.6388 10L31.6389 9.875L31.6388 9.875L31.6388 10ZM34.3333 52.6907L34.4433 52.7499L34.4434 52.7498L34.3333 52.6907ZM34.1371 53.0552V53.1802H34.2118L34.2471 53.1145L34.1371 53.0552ZM29.1406 53.0552L29.0306 53.1145L29.0659 53.1802H29.1406V53.0552ZM28.9444 52.6907L28.8343 52.7498L28.8344 52.7499L28.9444 52.6907ZM30.9447 11.8437L30.9044 11.7254L30.8197 11.7542V11.8437H30.9447ZM30.9448 11.8437L31.0281 11.9369L30.9045 11.7254L30.9448 11.8437ZM30.9447 33.6113H30.8197V33.7363H30.9447V33.6113ZM32.3336 33.6113V33.7363H32.4586V33.6113H32.3336ZM32.3336 11.8437L32.4168 11.7505L32.2086 11.5646V11.8437H32.3336ZM36.9585 40.026L36.8563 40.0978L37.0266 40.3403L37.0814 40.0491L36.9585 40.026ZM31.9848 35.7864L31.9227 35.8949L31.9227 35.8949L31.9848 35.7864ZM25.523 26.6908L25.6479 26.6939L25.6511 26.5658H25.523V26.6908ZM25.5212 26.6908L25.3966 26.681L25.3861 26.8158H25.5212V26.6908ZM25.412 31.2538L25.522 31.1946L25.287 31.2566L25.412 31.2538ZM25.5248 33.7798L25.3999 33.7888L25.4008 33.7956L25.5248 33.7798ZM31.2953 36.9931L31.2333 37.1016L31.2333 37.1016L31.2953 36.9931ZM36.5209 42.1107L36.4013 42.1469L36.4013 42.1471L36.5209 42.1107ZM36.5211 42.1113L36.643 42.1392L36.6504 42.1068L36.6407 42.0749L36.5211 42.1113ZM35.4343 46.1339L35.3255 46.1953L35.4671 46.4463L35.5536 46.1713L35.4343 46.1339ZM31.9968 42.738L32.0608 42.6307L32.0608 42.6306L31.9968 42.738ZM33.2936 51.6668V51.7918H33.5094L33.402 51.6046L33.2936 51.6668ZM32.3335 51.6668H32.2085V51.7918H32.3335V51.6668ZM33.2934 51.6665L33.1809 51.612L33.1521 51.6715L33.185 51.7288L33.2934 51.6665ZM34.7639 48.1248L34.8814 48.1674L34.894 48.1325L34.8856 48.0963L34.7639 48.1248ZM31.2847 43.9304L31.2207 44.0378L31.2208 44.0378L31.2847 43.9304ZM26.1598 39.1042L26.2645 39.0358L26.0366 39.1252L26.1598 39.1042ZM29.9845 51.6668L29.872 51.7214L29.9062 51.7918H29.9845V51.6668ZM30.9446 51.6668V51.7918H31.0696V51.6668H30.9446ZM30.9446 46.8055V46.6805H30.8196V46.8055H30.9446ZM32.3335 46.8055H32.4585V46.6805H32.3335V46.8055ZM31.6388 9.875C31.3302 9.87508 30.9803 9.9971 30.6092 10.2221C30.2368 10.448 29.8346 10.7827 29.4191 11.2215C28.5882 12.0991 27.6958 13.4016 26.8753 15.1101C25.2339 18.528 23.875 23.5813 23.875 30.1387H24.125C24.125 23.6152 25.4769 18.5994 27.1007 15.2183C27.9127 13.5274 28.7915 12.2479 29.6007 11.3934C30.0053 10.966 30.3904 10.6471 30.7389 10.4359C31.0887 10.2237 31.3932 10.1251 31.6389 10.125L31.6388 9.875ZM39.4027 30.1387C39.4027 23.5811 38.0439 18.5278 36.4025 15.11C35.582 13.4015 34.6897 12.099 33.8587 11.2214C33.4433 10.7827 33.041 10.4479 32.6686 10.2221C32.2975 9.99709 31.9475 9.87508 31.6389 9.875L31.6388 10.125C31.8846 10.1251 32.1891 10.2237 32.5389 10.4358C32.8874 10.6471 33.2725 10.966 33.6772 11.3933C34.4863 12.2478 35.3651 13.5272 36.1772 15.2182C37.8008 18.5992 39.1527 23.615 39.1527 30.1387H39.4027ZM34.4434 52.7498C34.6499 52.3653 39.4027 43.3842 39.4027 30.1387H39.1527C39.1527 43.3269 34.4194 52.2661 34.2231 52.6315L34.4434 52.7498ZM34.2471 53.1145L34.4433 52.7499L34.2232 52.6314L34.027 52.996L34.2471 53.1145ZM29.1406 53.1802H34.1371V52.9302H29.1406V53.1802ZM28.8344 52.7499L29.0306 53.1145L29.2507 52.996L29.0545 52.6314L28.8344 52.7499ZM23.875 30.1387C23.875 43.3842 28.6279 52.3652 28.8343 52.7498L29.0546 52.6316C28.8583 52.2659 24.125 43.3269 24.125 30.1387H23.875ZM30.8197 11.8437V11.8438H31.0697V11.8437H30.8197ZM30.9045 11.7254L30.9044 11.7254L30.9849 11.9621L30.9851 11.962L30.9045 11.7254ZM31.0279 11.937L31.0281 11.9369L30.8615 11.7505L30.8614 11.7506L31.0279 11.937ZM31.0697 33.6113V11.8438H30.8197V33.6113H31.0697ZM32.3336 33.4863H30.9447V33.7363H32.3336V33.4863ZM32.2086 11.8437V33.6113H32.4586V11.8437H32.2086ZM38.0141 30.1388C38.0141 19.1775 34.2277 13.3669 32.4168 11.7505L32.2503 11.937C33.995 13.4942 37.7641 19.229 37.7641 30.1388H38.0141ZM37.0814 40.0491C37.6295 37.1345 38.0141 33.7969 38.0141 30.1388H37.7641C37.7641 33.7794 37.3813 37.1014 36.8357 40.0029L37.0814 40.0491ZM31.9227 35.8949C34.6003 37.4246 36.0636 38.9697 36.8563 40.0978L37.0608 39.9541C36.2458 38.7941 34.7542 37.2246 32.0468 35.6778L31.9227 35.8949ZM25.398 26.6877C25.392 26.9314 25.3219 32.1226 31.9227 35.8949L32.0468 35.6778C25.5543 31.9675 25.6433 26.884 25.6479 26.6939L25.398 26.6877ZM25.5212 26.8158H25.523V26.5658H25.5212V26.8158ZM30.8614 11.7506C29.2517 13.189 26.0807 17.9411 25.3966 26.681L25.6459 26.7006C26.3263 18.0072 29.4779 13.322 31.028 11.937L30.8614 11.7506ZM25.287 31.2566C25.3061 32.1175 25.3409 32.9633 25.4001 33.7888L25.6495 33.7709C25.5906 32.9505 25.556 32.1089 25.5369 31.2511L25.287 31.2566ZM31.3574 36.8845C28.2495 35.1081 26.504 33.0194 25.522 31.1946L25.3019 31.3131C26.3061 33.179 28.0848 35.3019 31.2333 37.1016L31.3574 36.8845ZM36.6406 42.0745C36.6125 41.9819 35.8316 39.442 31.3574 36.8845L31.2333 37.1016C35.6498 39.626 36.391 42.1129 36.4013 42.1469L36.6406 42.0745ZM36.6407 42.0749L36.6405 42.0743L36.4013 42.1471L36.4015 42.1477L36.6407 42.0749ZM35.5536 46.1713C35.9278 44.9808 36.3019 43.6286 36.643 42.1392L36.3993 42.0834C36.0597 43.5662 35.6873 44.9119 35.3151 46.0964L35.5536 46.1713ZM31.9328 42.8454C33.7338 43.9185 34.7502 45.1763 35.3255 46.1953L35.5432 46.0724C34.9483 45.0186 33.9022 43.7278 32.0608 42.6307L31.9328 42.8454ZM25.4008 33.7956C25.5247 34.7707 26.4026 39.5525 31.9328 42.8454L32.0608 42.6306C26.6221 39.3923 25.7675 34.6982 25.6488 33.7641L25.4008 33.7956ZM33.2936 51.5418H32.3335V51.7918H33.2936V51.5418ZM33.185 51.7288L33.1851 51.7291L33.402 51.6046L33.4018 51.6043L33.185 51.7288ZM34.6463 48.0823C34.0126 49.8311 33.4553 51.0459 33.1809 51.612L33.4059 51.7211C33.6835 51.1482 34.2443 49.9255 34.8814 48.1674L34.6463 48.0823ZM31.2208 44.0378C33.8794 45.6207 34.5125 47.5999 34.6422 48.1534L34.8856 48.0963C34.7444 47.4935 34.0789 45.4485 31.3487 43.823L31.2208 44.0378ZM26.0552 39.1726C27.1291 40.8158 28.7537 42.5675 31.2207 44.0378L31.3487 43.823C28.9166 42.3735 27.319 40.6495 26.2645 39.0358L26.0552 39.1726ZM30.097 51.6123C29.4756 50.3315 27.4177 45.7302 26.283 39.0831L26.0366 39.1252C27.1763 45.8017 29.2435 50.4258 29.872 51.7214L30.097 51.6123ZM30.9446 51.5418H29.9845V51.7918H30.9446V51.5418ZM30.8196 46.8055V51.6668H31.0696V46.8055H30.8196ZM32.3335 46.6805H30.9446V46.9305H32.3335V46.6805ZM32.4585 51.6668V46.8055H32.2085V51.6668H32.4585Z" fill="black"/>
</g>
<defs>
<filter id="filter0_d_67_135" x="19.875" y="9.875" width="23.5277" height="51.3053" filterUnits="userSpaceOnUse" color-interpolation-filters="sRGB">
<feFlood flood-opacity="0" result="BackgroundImageFix"/>
<feColorMatrix in="SourceAlpha" type="matrix" values="0 0 0 0 0 0 0 0 0 0 0 0 0 0 0 0 0 0 127 0" result="hardAlpha"/>
<feOffset dy="4"/>
<feGaussianBlur stdDeviation="2"/>
<feColorMatrix type="matrix" values="0 0 0 0 0 0 0 0 0 0 0 0 0 0 0 0 0 0 0.25 0"/>
<feBlend mode="normal" in2="BackgroundImageFix" result="effect1_dropShadow_67_135"/>
<feBlend mode="normal" in="SourceGraphic" in2="effect1_dropShadow_67_135" result="shape"/>
</filter>
</defs>
</svg>
