<svg width="64" height="64" viewBox="0 0 64 64" fill="none" xmlns="http://www.w3.org/2000/svg">
<g filter="url(#filter0_d_67_123)">
<path d="M51.0371 46.704H42.7503C42.4851 46.704 42.2688 46.922 42.2688 47.1893C42.2688 47.4566 42.4851 47.6746 42.7503 47.6746H51.0371C51.3022 47.6746 51.5185 47.4566 51.5185 47.1893C51.5185 46.922 51.3022 46.704 51.0371 46.704Z" fill="white"/>
<path d="M51.037 52.8558H41.7459C41.4807 52.8558 41.2644 53.0738 41.2644 53.3412C41.2644 53.6085 41.4807 53.8265 41.7459 53.8265H51.037C51.3022 53.8265 51.5185 53.6085 51.5185 53.3412C51.5185 53.0738 51.3022 52.8558 51.037 52.8558Z" fill="white"/>
<path d="M13.4815 50.2074H20.9743C21.2395 50.2074 21.4558 49.9894 21.4558 49.7221C21.4558 49.4548 21.2395 49.2368 20.9743 49.2368H13.4815C13.2163 49.2368 13 49.4548 13 49.7221C13 49.9913 13.2163 50.2074 13.4815 50.2074Z" fill="white"/>
<path fill-rule="evenodd" clip-rule="evenodd" d="M16.7448 15.0504C16.931 14.9576 17.1529 14.9955 17.2996 15.1433L17.2999 15.1436C17.4447 15.2914 17.4823 15.517 17.3883 15.7047C17.0892 16.3076 16.9388 16.9502 16.9388 17.6156C16.9388 19.9929 18.8685 21.9285 21.2383 21.9285C21.9022 21.9285 22.5435 21.7749 23.1454 21.4754C23.3315 21.3825 23.5535 21.4204 23.7002 21.5683C23.8469 21.7161 23.8826 21.9417 23.7905 22.1275C22.8933 23.9418 21.0878 25.0679 19.0791 25.0679C16.1768 25.0679 13.8165 22.6961 13.8165 19.7823C13.8165 17.7633 14.9393 15.951 16.7448 15.0504ZM22.1277 22.8229C21.8342 22.874 21.5389 22.8987 21.238 22.8987L21.2381 22.8989C18.336 22.8989 15.9756 20.529 15.9775 17.6152C15.9775 17.3119 16.0019 17.0142 16.0527 16.7204C15.2477 17.5147 14.7794 18.6067 14.7794 19.7821C14.7794 22.1612 16.7091 24.0968 19.0789 24.0968C20.2506 24.0968 21.3359 23.6286 22.1277 22.8229Z" fill="white"/>
<path fill-rule="evenodd" clip-rule="evenodd" d="M51.039 38.9258H51.0371C50.7719 38.9258 50.5575 39.1419 50.5556 39.4092L50.5443 42.0007L32.677 15.4394C32.4984 15.1721 32.0602 15.1721 31.8796 15.4394L14.0253 41.9818L14.0366 39.231C14.0385 38.9637 13.8222 38.7438 13.557 38.7438H13.5551C13.2899 38.7438 13.0755 38.9599 13.0736 39.2272L13.0567 43.5685C13.0548 43.7827 13.194 43.9704 13.3953 44.0349C13.4423 44.0501 13.4893 44.0557 13.5382 44.0557C13.6943 44.0557 13.8448 43.978 13.9369 43.8434L16.7468 39.667V43.5723C16.7468 43.8396 16.9631 44.0576 17.2283 44.0576H27.9523C28.4996 45.8472 30.1603 47.1515 32.1201 47.1515C32.1267 47.1515 32.1328 47.1511 32.1389 47.1506L32.1389 47.1506C32.145 47.1501 32.1512 47.1496 32.1577 47.1496C32.1605 47.1496 32.1638 47.1501 32.1671 47.1506L32.1671 47.1506L32.1672 47.1506C32.1705 47.1511 32.1737 47.1515 32.1765 47.1515C32.1825 47.1515 32.1885 47.1509 32.1944 47.1502L32.2048 47.1487C32.2142 47.1473 32.2236 47.1458 32.233 47.1458C34.1419 47.0965 35.75 45.8112 36.2861 44.0576H47.3303C47.5955 44.0576 47.8118 43.8396 47.8118 43.5723V39.667L50.6217 43.8434C50.7402 44.0197 50.9583 44.0974 51.1596 44.0349C51.3608 43.9723 51.5 43.7846 51.5 43.5723L51.5188 39.413C51.5207 39.1438 51.3063 38.9277 51.0392 38.9258L51.039 38.9258ZM32.2328 46.1755L32.2274 46.1758C32.2031 46.1776 32.1803 46.1793 32.1576 46.1793C31.3225 46.1679 30.6454 45.4854 30.6454 44.6475C30.6454 44.0958 31.4504 42.8257 32.1764 41.8683C32.9024 42.8257 33.7074 44.0958 33.7074 44.6475C33.7074 45.4721 33.051 46.1451 32.2328 46.1755L32.2328 46.1755ZM34.6684 44.6456C34.6684 44.7896 34.6496 44.9261 34.6271 45.0626L34.6271 45.0627C35.1781 44.456 35.5166 43.6541 35.5129 42.7726C35.5129 41.3185 33.3236 38.2246 32.1162 36.6853C30.9106 38.2246 28.7195 41.3204 28.7195 42.7726C28.7195 43.728 29.1163 44.5925 29.7501 45.2124C29.7088 45.0285 29.6805 44.8408 29.6805 44.6456C29.6805 43.4171 31.4504 41.2085 31.804 40.7782C31.9864 40.5564 32.3626 40.5564 32.545 40.7782C32.9005 41.2085 34.6684 43.4171 34.6684 44.6456ZM32.4905 35.6048C32.3081 35.383 31.9319 35.383 31.7494 35.6048C31.3413 36.0996 27.7603 40.5128 27.7603 42.7729C27.7603 42.849 27.7651 42.9241 27.7699 42.999V42.999C27.7718 43.0286 27.7737 43.0581 27.7753 43.0876H22.9268V39.8875C23.555 39.3757 25.637 37.6013 27.7455 34.9679C29.457 32.8314 31.4111 29.8114 32.297 26.3686C33.1828 29.8132 35.1369 32.831 36.8485 34.9679C38.9568 37.6011 41.0388 39.3755 41.6671 39.8875V43.0876H36.4628C36.4703 42.9833 36.4778 42.8791 36.4778 42.7729C36.4797 40.5132 32.8987 36.0998 32.4906 35.6048H32.4905ZM42.6278 43.0874H46.8483L46.8508 38.2361L32.2802 16.577L17.7096 38.2361V43.0874H21.962V39.6523C21.962 39.5006 22.0316 39.3584 22.1501 39.2674L22.1504 39.2672C22.2666 39.1754 31.8134 31.633 31.8134 22.706C31.8134 22.4387 32.0297 22.2207 32.2949 22.2207C32.5601 22.2207 32.7764 22.4387 32.7764 22.706C32.7764 31.6299 42.3165 39.1701 42.4393 39.2671L42.4397 39.2674C42.5582 39.3603 42.6278 39.5025 42.6278 39.6523V43.0874Z" fill="white"/>
<path fill-rule="evenodd" clip-rule="evenodd" d="M39.596 48.9487C39.6393 49.0701 39.6299 49.2065 39.5734 49.3222L39.5738 49.3222C39.5154 49.4397 39.4158 49.5288 39.2916 49.5705L37.5105 50.1639L39.2221 50.6511C39.3462 50.6872 39.4515 50.7706 39.5136 50.8843C39.5756 50.9981 39.5888 51.1308 39.5531 51.2559L38.9381 53.345C38.876 53.5555 38.6861 53.692 38.4773 53.692C38.434 53.692 38.3889 53.6844 38.3456 53.673L32.2178 51.927L26.5941 53.8019C26.5452 53.819 26.4944 53.8265 26.4437 53.8265C26.2443 53.8265 26.0581 53.7014 25.9923 53.5005L25.2832 51.4398C25.2399 51.3184 25.2493 51.1819 25.3058 51.0663C25.3622 50.9488 25.4637 50.8616 25.586 50.8199L27.0718 50.3251L25.2869 49.817C25.1628 49.781 25.0575 49.6976 24.9954 49.5838C24.9334 49.4701 24.9202 49.3374 24.9559 49.2122L25.5709 47.1231C25.6462 46.8672 25.9095 46.7212 26.1634 46.7932L32.3644 48.5601L38.2813 46.5866C38.5315 46.5032 38.8004 46.6378 38.8869 46.888L39.596 48.9487ZM26.3591 47.8568L26.0168 49.0151L28.7026 49.781L30.7338 49.1042L26.3591 47.8568ZM38.4901 51.4511L38.1478 52.6094L33.8483 51.3829L35.8796 50.7061L38.4901 51.4511ZM26.3498 51.5876L26.7429 52.7308L38.5262 48.8027L38.1331 47.6595L26.3498 51.5876Z" fill="white"/>
</g>
<defs>
<filter id="filter0_d_67_123" x="9" y="15" width="46.5188" height="46.8265" filterUnits="userSpaceOnUse" color-interpolation-filters="sRGB">
<feFlood flood-opacity="0" result="BackgroundImageFix"/>
<feColorMatrix in="SourceAlpha" type="matrix" values="0 0 0 0 0 0 0 0 0 0 0 0 0 0 0 0 0 0 127 0" result="hardAlpha"/>
<feOffset dy="4"/>
<feGaussianBlur stdDeviation="2"/>
<feColorMatrix type="matrix" values="0 0 0 0 0 0 0 0 0 0 0 0 0 0 0 0 0 0 0.25 0"/>
<feBlend mode="normal" in2="BackgroundImageFix" result="effect1_dropShadow_67_123"/>
<feBlend mode="normal" in="SourceGraphic" in2="effect1_dropShadow_67_123" result="shape"/>
</filter>
</defs>
</svg>
