<svg width="64" height="64" viewBox="0 0 64 64" fill="none" xmlns="http://www.w3.org/2000/svg">
<g clip-path="url(#clip0_67_110)">
<g filter="url(#filter0_d_67_110)">
<path fill-rule="evenodd" clip-rule="evenodd" d="M61.8867 51.4858C61.8773 51.5143 61.8655 51.5427 61.8514 51.5689L61.8519 51.5685C61.8378 51.597 61.8237 51.6231 61.7954 51.642C61.7845 51.6595 61.7735 51.6747 61.7625 51.69C61.757 51.6977 61.7515 51.7053 61.7461 51.7132C61.7272 51.737 61.7061 51.7631 61.6849 51.7868C61.6661 51.8058 61.6473 51.8248 61.6261 51.8438C61.6026 51.8675 61.5767 51.8889 61.5509 51.9079C61.5401 51.9151 61.528 51.923 61.5157 51.9309C61.5039 51.9384 61.4918 51.946 61.4803 51.9529C61.4733 51.9565 61.4664 51.9602 61.4595 51.964C61.4547 51.9666 61.4499 51.9693 61.4451 51.972C61.4293 51.9808 61.4133 51.9898 61.3957 51.998C61.3862 52.0028 61.3764 52.0071 61.3664 52.0111C61.3556 52.0154 61.3446 52.0194 61.3335 52.0235C61.3245 52.0268 61.3154 52.0301 61.3063 52.0336C61.3 52.036 61.294 52.0386 61.288 52.0413C61.2823 52.0438 61.2766 52.0463 61.2706 52.0486C61.2641 52.0511 61.2573 52.0533 61.2498 52.055C61.2451 52.0562 61.241 52.0562 61.2369 52.0562H61.2356C61.2319 52.0562 61.2282 52.0563 61.224 52.0574C61.1511 52.0764 61.0758 52.0882 60.9982 52.0882C60.8924 52.0882 60.8548 52.1048 60.8548 52.1048C60.8115 52.1554 60.7329 52.4085 60.6832 52.5688L60.6784 52.5842C60.4949 53.1776 60.1116 54.4116 58.5618 54.4116C57.2362 54.4116 56.5777 53.5234 56.0959 52.8736L56.0925 52.869C55.641 52.2543 55.4693 52.0882 55.1306 52.0882C54.792 52.0882 54.6226 52.2543 54.1688 52.8666L54.1654 52.8711C53.6836 53.521 53.025 54.4092 51.6971 54.4092C50.3714 54.4092 49.7129 53.521 49.2311 52.8711L49.2277 52.8666C48.7762 52.2543 48.6045 52.0882 48.2659 52.0882C47.9296 52.0882 47.7579 52.2543 47.304 52.869C46.8242 53.5192 46.1634 54.4116 44.8347 54.4116C43.5067 54.4116 42.8482 53.5234 42.3664 52.8736L42.363 52.869C41.9114 52.2567 41.7397 52.0906 41.4011 52.0906C41.0624 52.0906 40.8931 52.2567 40.4392 52.869C39.9594 53.5192 39.3009 54.4116 37.9699 54.4116C36.6442 54.4116 35.9858 53.5234 35.504 52.8736L35.5006 52.869C35.049 52.2567 34.8773 52.0906 34.5387 52.0906C34.2024 52.0906 34.0307 52.2568 33.5768 52.8714C33.097 53.5217 32.4362 54.414 31.1075 54.414C29.7818 54.414 29.1233 53.5259 28.6415 52.876L28.6381 52.8714C28.1866 52.2591 28.0149 52.093 27.6762 52.093C27.3399 52.093 27.1683 52.2592 26.7144 52.8738C26.2346 53.5241 25.5737 54.4165 24.245 54.4165C23.824 54.4165 23.4407 54.2432 23.1703 53.93C22.5141 53.1753 22.6458 51.889 22.9163 49.8527L22.9209 49.8175C23.0175 49.0808 23.1648 47.9572 23.1162 47.4107C21.3595 47.757 18.8666 51.31 17.5732 53.8945C17.4133 54.2173 17.0864 54.4166 16.7336 54.4166C16.7148 54.4166 16.696 54.4166 16.6772 54.4142C16.3033 54.3929 15.9764 54.1484 15.8494 53.7925C15.633 53.1892 13.7846 47.8188 15.7059 44.8475C16.4256 43.7368 17.592 43.0984 19.083 43.0011C20.3788 42.9156 20.9715 42.5644 21.0843 42.2867C21.1596 42.1016 21.0396 41.786 20.7763 41.4846C20.0754 40.68 18.5092 40.0345 16.7266 40.5234C14.2548 41.1978 11.4845 44.5416 10.5508 47.9781C10.2239 49.1861 9.87113 51.4217 11.2069 52.8052C11.5691 53.1826 11.5597 53.783 11.1881 54.1485C10.8142 54.514 10.2216 54.5068 9.85707 54.1295C8.38253 52.6036 7.98509 50.2399 8.73529 47.4774C9.70638 43.8985 12.7779 39.6338 16.2349 38.6916C18.81 37.9892 21.0794 38.9574 22.1895 40.2319C22.9585 41.1123 23.1889 42.1257 22.8244 43.0133C22.507 43.7847 21.6227 44.7387 19.2051 44.8977C18.3044 44.9571 17.6765 45.2822 17.2838 45.8873C16.4913 47.1119 16.6747 49.2834 17.0345 51.0159C18.4456 48.7304 20.922 45.4103 23.4854 45.491C23.8993 45.5052 24.2732 45.6856 24.5366 46.0012C24.8 46.3145 24.9293 46.7203 24.9764 47.2234C26.7072 46.0677 29.2333 44.9237 34.2189 44.4159C28.8144 22.321 38.9741 9.88285 39.435 9.33463C39.439 9.33067 39.4429 9.32753 39.4467 9.32453C39.4519 9.32035 39.4568 9.31643 39.4609 9.3109C39.4891 9.28004 39.5174 9.25394 39.5479 9.22783C39.5667 9.20885 39.5856 9.19223 39.6067 9.17799C39.6356 9.15855 39.6645 9.1423 39.6947 9.12531L39.7149 9.11392C39.7337 9.10205 39.7525 9.09018 39.7737 9.08069C39.8184 9.0617 39.8631 9.04746 39.9101 9.0356C39.9211 9.03402 39.932 9.03033 39.943 9.02663L39.9431 9.02662C39.9485 9.02478 39.954 9.02294 39.9595 9.02136C40.023 9.00712 40.0888 9 40.157 9L40.2958 9.00475C40.5733 9.00475 40.8343 9.12578 41.013 9.33937C41.474 9.88495 51.584 22.2596 46.2762 44.2475C60.1558 45.0685 61.8538 50.6575 61.9196 50.902C61.922 50.9115 61.922 50.9233 61.9243 50.9328L61.9384 51.0254C61.9431 51.0586 61.9479 51.0918 61.9479 51.1251C61.9479 51.1274 61.948 51.1297 61.9482 51.132L61.949 51.1393C61.9493 51.1418 61.9497 51.1444 61.9499 51.147C61.9501 51.1492 61.9502 51.1513 61.9502 51.1535C61.9502 51.1599 61.9499 51.1659 61.9495 51.1719C61.9488 51.1821 61.9475 51.1919 61.9462 51.2024L61.9455 51.2081L61.9453 51.2115C61.943 51.2438 61.9406 51.2781 61.9337 51.3102C61.9326 51.3174 61.9312 51.3246 61.9298 51.3318C61.9285 51.3378 61.9272 51.3439 61.9259 51.35C61.9225 51.3652 61.9187 51.3804 61.9149 51.3956L61.9101 51.4121L61.9068 51.4237C61.9008 51.445 61.8949 51.466 61.8867 51.4858ZM41.0972 47.1712H43.5289C48.884 29.4981 43.8464 17.5842 41.0972 12.8543V47.1712ZM39.2158 13.1034V47.1712H36.9229C31.6715 29.842 36.4455 18.0039 39.2158 13.1034ZM58.8881 52.0447L58.8929 52.0292L58.8922 52.0293C59.0027 51.6733 59.1908 51.0895 59.6541 50.6789C58.6126 49.3499 55.3273 46.6206 45.7909 46.1246C45.584 46.877 45.3606 47.6388 45.116 48.4124C44.9913 48.8064 44.6292 49.0745 44.22 49.0745H36.2291C35.8199 49.0745 35.4577 48.8064 35.3331 48.4124C35.1073 47.691 34.9003 46.9813 34.7051 46.2813C28.6587 46.8556 26.4952 48.3863 24.8419 49.6773C24.8346 49.7329 24.8276 49.7881 24.8205 49.8438C24.8095 49.9308 24.7984 50.019 24.7855 50.1116C24.6937 50.8046 24.5526 51.8726 24.5809 52.4422C24.7526 52.3401 24.9266 52.1313 25.2088 51.7468L25.2122 51.7423C25.694 51.0924 26.3525 50.2042 27.6805 50.2042C29.0061 50.2042 29.6646 51.0924 30.1464 51.7422L30.1498 51.7468C30.6014 52.3591 30.773 52.5252 31.1117 52.5252C31.4503 52.5252 31.6197 52.3591 32.0736 51.7468L32.0769 51.7423C32.5587 51.0924 33.2173 50.2042 34.5452 50.2042C35.8709 50.2042 36.5294 51.0924 37.0112 51.7422L37.0146 51.7468C37.4685 52.3591 37.6402 52.5252 37.9765 52.5252C38.3151 52.5252 38.4844 52.3591 38.9383 51.7468C39.4181 51.0965 40.0766 50.2042 41.4077 50.2042C42.7333 50.2042 43.3918 51.0924 43.8736 51.7422L43.877 51.7468C44.3309 52.3615 44.5026 52.5276 44.8412 52.5276C45.1799 52.5276 45.3492 52.3615 45.8031 51.7492L45.8065 51.7447C46.2883 51.0948 46.9468 50.2066 48.2748 50.2066C49.6004 50.2066 50.2589 51.0948 50.7407 51.7447L50.7441 51.7492C51.1957 52.3615 51.3673 52.5276 51.706 52.5276C52.0446 52.5276 52.2163 52.3615 52.6702 51.7468C53.15 51.0965 53.8108 50.2042 55.1395 50.2042C56.4675 50.2042 57.126 51.0924 57.6078 51.7422L57.6112 51.7468C58.0651 52.3591 58.2368 52.5252 58.5731 52.5252C58.6789 52.5252 58.7166 52.5086 58.7166 52.5086C58.7598 52.458 58.8384 52.205 58.8881 52.0447Z" fill="white"/>
<path d="M61.8514 51.5689L61.4116 51.3311L62.1693 51.9548L61.8514 51.5689ZM61.8867 51.4858L61.4245 51.295L61.4176 51.3117L61.4119 51.329L61.8867 51.4858ZM61.8519 51.5685L62.2999 51.7905L61.534 51.1825L61.8519 51.5685ZM61.7954 51.642L61.5163 51.2272L61.4288 51.2861L61.3725 51.3754L61.7954 51.642ZM61.7625 51.69L62.1687 51.9816L62.1688 51.9815L61.7625 51.69ZM61.7461 51.7132L62.1379 52.0239L62.1478 52.0114L62.1569 51.9983L61.7461 51.7132ZM61.6849 51.7868L62.0401 52.1388L62.0493 52.1294L62.0581 52.1196L61.6849 51.7868ZM61.6261 51.8438L61.2922 51.4716L61.2813 51.4814L61.271 51.4918L61.6261 51.8438ZM61.5509 51.9079L61.8299 52.3227L61.8384 52.317L61.8467 52.3109L61.5509 51.9079ZM61.5157 51.9309L61.2464 51.5096L61.2464 51.5096L61.5157 51.9309ZM61.4803 51.9529L61.7056 52.3993L61.7228 52.3906L61.7393 52.3807L61.4803 51.9529ZM61.4595 51.964L61.2185 51.5259L61.2184 51.526L61.4595 51.964ZM61.4451 51.972L61.2008 51.5357L61.2008 51.5358L61.4451 51.972ZM61.3957 51.998L61.1845 51.5448L61.1774 51.5481L61.1704 51.5516L61.3957 51.998ZM61.3664 52.0111L61.1803 51.547L61.1802 51.5471L61.3664 52.0111ZM61.3335 52.0235L61.1621 51.5538L61.1621 51.5538L61.3335 52.0235ZM61.3063 52.0336L61.4831 52.5013L61.4872 52.4998L61.3063 52.0336ZM61.288 52.0413L61.4888 52.4992L61.489 52.4991L61.288 52.0413ZM61.2706 52.0486L61.4499 52.5154L61.4501 52.5153L61.2706 52.0486ZM61.2498 52.055L61.1405 51.5669L61.1274 51.5702L61.2498 52.055ZM61.2356 52.0562L61.2356 51.5562L61.2341 51.5562L61.2356 52.0562ZM61.224 52.0574L61.1019 51.5725L61.098 51.5735L61.224 52.0574ZM60.8548 52.1048L60.6528 51.6474L60.5488 51.6933L60.4749 51.7797L60.8548 52.1048ZM60.6832 52.5688L61.1606 52.7172L61.1607 52.7171L60.6832 52.5688ZM60.6784 52.5842L60.2009 52.4359L60.2007 52.4365L60.6784 52.5842ZM56.0959 52.8736L55.6941 53.1712L55.6943 53.1714L56.0959 52.8736ZM56.0925 52.869L55.6896 53.165L55.6907 53.1666L56.0925 52.869ZM54.1688 52.8666L54.5704 53.1644L54.5704 53.1643L54.1688 52.8666ZM54.1654 52.8711L53.7638 52.5733L53.7637 52.5733L54.1654 52.8711ZM49.2311 52.8711L49.6328 52.5734L49.6327 52.5732L49.2311 52.8711ZM49.2277 52.8666L48.8253 53.1633L48.8262 53.1645L49.2277 52.8666ZM47.304 52.869L46.9018 52.572L46.9016 52.5721L47.304 52.869ZM42.3664 52.8736L42.768 52.5758L42.768 52.5758L42.3664 52.8736ZM42.363 52.869L41.9606 53.1658L41.9613 53.1668L42.363 52.869ZM40.4392 52.869L40.0375 52.5712L40.0369 52.5721L40.4392 52.869ZM35.504 52.8736L35.9056 52.5758L35.9056 52.5757L35.504 52.8736ZM35.5006 52.869L35.0982 53.1658L35.099 53.1668L35.5006 52.869ZM33.5768 52.8714L33.1746 52.5744L33.1744 52.5746L33.5768 52.8714ZM28.6415 52.876L29.0432 52.5782L29.0431 52.5781L28.6415 52.876ZM28.6381 52.8714L28.2357 53.1682L28.2365 53.1693L28.6381 52.8714ZM26.7144 52.8738L26.3121 52.5768L26.312 52.577L26.7144 52.8738ZM23.1703 53.93L23.5487 53.6032L23.5476 53.6019L23.1703 53.93ZM22.9163 49.8527L23.4119 49.9186L23.412 49.9177L22.9163 49.8527ZM22.9209 49.8175L22.4251 49.7525L22.4251 49.7525L22.9209 49.8175ZM23.1162 47.4107L23.6142 47.3664L23.565 46.8126L23.0195 46.9201L23.1162 47.4107ZM17.5732 53.8945L17.1261 53.6707L17.1252 53.6725L17.5732 53.8945ZM16.6772 54.4142L16.7398 53.9182L16.7228 53.916L16.7057 53.915L16.6772 54.4142ZM15.8494 53.7925L16.3203 53.6245L16.32 53.6237L15.8494 53.7925ZM15.7059 44.8475L15.2863 44.5756L15.2861 44.576L15.7059 44.8475ZM19.083 43.0011L19.1156 43.5L19.1159 43.5L19.083 43.0011ZM21.0843 42.2867L21.5475 42.475L21.5475 42.475L21.0843 42.2867ZM20.7763 41.4846L20.3992 41.813L20.3998 41.8136L20.7763 41.4846ZM16.7266 40.5234L16.8582 41.0058L16.8588 41.0056L16.7266 40.5234ZM10.5508 47.9781L10.0683 47.847L10.0682 47.8475L10.5508 47.9781ZM11.2069 52.8052L11.5677 52.459L11.5666 52.458L11.2069 52.8052ZM11.1881 54.1485L11.5376 54.5061L11.5387 54.5049L11.1881 54.1485ZM9.85707 54.1295L10.2167 53.7821L10.2166 53.782L9.85707 54.1295ZM8.73529 47.4774L9.21781 47.6085L9.21784 47.6084L8.73529 47.4774ZM16.2349 38.6916L16.3664 39.174L16.3665 39.174L16.2349 38.6916ZM22.1895 40.2319L21.8124 40.5603L21.8129 40.5608L22.1895 40.2319ZM22.8244 43.0133L23.2868 43.2036L23.2869 43.2033L22.8244 43.0133ZM19.2051 44.8977L19.1723 44.3988L19.1723 44.3988L19.2051 44.8977ZM17.2838 45.8873L16.8644 45.6151L16.864 45.6157L17.2838 45.8873ZM17.0345 51.0159L16.545 51.1176L16.8003 52.347L17.4599 51.2786L17.0345 51.0159ZM23.4854 45.491L23.5026 44.9913L23.5011 44.9912L23.4854 45.491ZM24.5366 46.0012L24.1527 46.3216L24.1539 46.323L24.5366 46.0012ZM24.9764 47.2234L24.4785 47.27L24.5566 48.1049L25.254 47.6392L24.9764 47.2234ZM34.2189 44.4159L34.2696 44.9133L34.8411 44.8551L34.7046 44.2971L34.2189 44.4159ZM39.435 9.33463L39.0799 8.98266L39.0655 8.9972L39.0523 9.01286L39.435 9.33463ZM39.4467 9.32453L39.7587 9.71524L39.7587 9.71524L39.4467 9.32453ZM39.4609 9.3109L39.092 8.97344L39.0748 8.99222L39.0596 9.01264L39.4609 9.3109ZM39.5479 9.22783L39.8726 9.60808L39.8884 9.59456L39.9031 9.57977L39.5479 9.22783ZM39.6067 9.17799L39.3276 8.76313L39.3276 8.76314L39.6067 9.17799ZM39.6947 9.12531L39.9399 9.56108L39.9404 9.56076L39.6947 9.12531ZM39.7149 9.11392L39.9606 9.54937L39.9713 9.54335L39.9816 9.53682L39.7149 9.11392ZM39.7737 9.08069L39.5781 8.62042L39.5691 8.62447L39.7737 9.08069ZM39.9101 9.0356L39.8387 8.54071L39.813 8.54443L39.7878 8.55079L39.9101 9.0356ZM39.943 9.02663L40.1024 9.50056L40.107 9.49899L39.943 9.02663ZM39.9431 9.02662L39.7837 8.55268L39.7791 8.55426L39.9431 9.02662ZM39.9595 9.02136L39.8501 8.53348L39.8354 8.53676L39.821 8.54092L39.9595 9.02136ZM40.157 9L40.1741 8.50029L40.1656 8.5H40.157V9ZM40.2958 9.00475L40.2787 9.50445L40.2872 9.50475H40.2958V9.00475ZM41.013 9.33937L40.6296 9.66025L40.6311 9.66205L41.013 9.33937ZM46.2762 44.2475L45.7902 44.1301L45.6499 44.7113L46.2467 44.7466L46.2762 44.2475ZM61.9196 50.902L62.4051 50.7818L62.4024 50.7719L61.9196 50.902ZM61.9243 50.9328L62.4186 50.8575L62.4152 50.8349L62.4097 50.8127L61.9243 50.9328ZM61.9384 51.0254L62.4335 50.9553L62.4327 50.95L61.9384 51.0254ZM61.9482 51.132L61.4501 51.1773L61.4514 51.1882L61.9482 51.132ZM61.949 51.1393L61.4522 51.1955L61.4528 51.2007L61.949 51.1393ZM61.9499 51.147L62.448 51.1035L62.448 51.1032L61.9499 51.147ZM61.9495 51.1719L61.4508 51.1357L61.4508 51.1357L61.9495 51.1719ZM61.9462 51.2024L61.4501 51.1402L61.4501 51.1405L61.9462 51.2024ZM61.9455 51.2081L61.4494 51.1462L61.4477 51.1595L61.4468 51.1728L61.9455 51.2081ZM61.9453 51.2115L61.4465 51.1762L61.4465 51.1763L61.9453 51.2115ZM61.9337 51.3102L61.4447 51.2063L61.4423 51.2174L61.4404 51.2287L61.9337 51.3102ZM61.9298 51.3318L62.4199 51.4306L62.4199 51.4304L61.9298 51.3318ZM61.9259 51.35L61.438 51.2406L61.438 51.2406L61.9259 51.35ZM61.9149 51.3956L62.3946 51.5366L62.3977 51.5263L62.4002 51.5159L61.9149 51.3956ZM61.9101 51.4121L61.4304 51.2711L61.429 51.2759L61.9101 51.4121ZM61.9068 51.4237L61.4257 51.2875L61.4255 51.2882L61.9068 51.4237ZM43.5289 47.1712V47.6712H43.8999L44.0074 47.3162L43.5289 47.1712ZM41.0972 47.1712H40.5972V47.6712H41.0972V47.1712ZM41.0972 12.8543L41.5295 12.603L40.5972 10.999V12.8543H41.0972ZM39.2158 47.1712V47.6712H39.7158V47.1712H39.2158ZM39.2158 13.1034H39.7158V11.2029L38.7806 12.8573L39.2158 13.1034ZM36.9229 47.1712L36.4444 47.3162L36.552 47.6712H36.9229V47.1712ZM58.8929 52.0292L59.3705 52.1773L59.6017 51.4318L58.8278 51.5335L58.8929 52.0292ZM58.8881 52.0447L59.3657 52.1929L59.3657 52.1928L58.8881 52.0447ZM58.8922 52.0293L58.4147 51.881L58.1832 52.6267L58.9573 52.525L58.8922 52.0293ZM59.6541 50.6789L59.9858 51.0531L60.338 50.7409L60.0477 50.3705L59.6541 50.6789ZM45.7909 46.1246L45.8169 45.6253L45.4155 45.6044L45.3088 45.992L45.7909 46.1246ZM45.116 48.4124L45.5927 48.5633L45.5927 48.5631L45.116 48.4124ZM35.3331 48.4124L34.8559 48.5618L34.8564 48.5632L35.3331 48.4124ZM34.7051 46.2813L35.1868 46.147L35.0744 45.7439L34.6579 45.7835L34.7051 46.2813ZM24.8419 49.6773L24.5342 49.2833L24.373 49.4091L24.3462 49.6119L24.8419 49.6773ZM24.8205 49.8438L25.3166 49.9066L25.3166 49.9066L24.8205 49.8438ZM24.7855 50.1116L24.2902 50.0426L24.2898 50.046L24.7855 50.1116ZM24.5809 52.4422L24.0815 52.4669L24.1226 53.2961L24.8363 52.872L24.5809 52.4422ZM25.2088 51.7468L24.807 51.4491L24.8057 51.4509L25.2088 51.7468ZM25.2122 51.7423L24.8105 51.4445L24.8104 51.4446L25.2122 51.7423ZM30.1464 51.7422L29.7447 52.04L29.7448 52.0401L30.1464 51.7422ZM30.1498 51.7468L30.5522 51.45L30.5514 51.449L30.1498 51.7468ZM32.0736 51.7468L32.4752 52.0446L32.4753 52.0445L32.0736 51.7468ZM32.0769 51.7423L31.6753 51.4445L31.6752 51.4446L32.0769 51.7423ZM37.0112 51.7422L36.6095 52.04L36.6096 52.0401L37.0112 51.7422ZM37.0146 51.7468L37.4162 51.449L37.4162 51.449L37.0146 51.7468ZM38.9383 51.7468L39.34 52.0446L39.3407 52.0437L38.9383 51.7468ZM43.8736 51.7422L44.2754 51.4446L44.2752 51.4444L43.8736 51.7422ZM43.877 51.7468L44.2792 51.4498L44.2788 51.4492L43.877 51.7468ZM45.8031 51.7492L45.4014 51.4515L45.4014 51.4515L45.8031 51.7492ZM45.8065 51.7447L45.4048 51.4469L45.4048 51.4469L45.8065 51.7447ZM50.7407 51.7447L50.3391 52.0424L50.3391 52.0425L50.7407 51.7447ZM50.7441 51.7492L51.1465 51.4525L51.1457 51.4514L50.7441 51.7492ZM52.6702 51.7468L53.0724 52.0438L53.0726 52.0437L52.6702 51.7468ZM57.6078 51.7422L57.2062 52.04L57.2062 52.0401L57.6078 51.7422ZM57.6112 51.7468L58.0129 51.449L58.0128 51.449L57.6112 51.7468ZM58.7166 52.5086L58.9185 52.966L59.0225 52.9201L59.0964 52.8337L58.7166 52.5086ZM62.2913 51.8066C62.3219 51.75 62.3446 51.6936 62.3615 51.6426L61.4119 51.329C61.4111 51.3315 61.4104 51.3332 61.4101 51.334C61.4098 51.3347 61.4102 51.3337 61.4116 51.3311L62.2913 51.8066ZM61.534 51.1825L61.5336 51.1829L62.1693 51.9548L62.1697 51.9544L61.534 51.1825ZM62.0745 52.0569C62.2224 51.9574 62.285 51.8206 62.2999 51.7905L61.4039 51.3465C61.3906 51.3733 61.4249 51.2887 61.5163 51.2272L62.0745 52.0569ZM62.1688 51.9815C62.1789 51.9675 62.1983 51.9406 62.2184 51.9087L61.3725 51.3754C61.3719 51.3764 61.3707 51.3782 61.3681 51.3819C61.3653 51.386 61.3621 51.3904 61.3563 51.3986L62.1688 51.9815ZM62.1569 51.9983C62.1597 51.9942 62.1629 51.9897 62.1687 51.9816L61.3563 51.3985C61.3512 51.4057 61.3434 51.4165 61.3353 51.4282L62.1569 51.9983ZM62.0581 52.1196C62.0891 52.0849 62.1174 52.0497 62.1379 52.0239L61.3543 51.4026C61.3371 51.4243 61.3231 51.4413 61.3118 51.454L62.0581 52.1196ZM61.96 52.216C61.9937 52.1857 62.0225 52.1565 62.0401 52.1388L61.3298 51.4349C61.3097 51.4551 61.3008 51.4639 61.2922 51.4716L61.96 52.216ZM61.8467 52.3109C61.8879 52.2807 61.935 52.2425 61.9813 52.1957L61.271 51.4918C61.2708 51.492 61.2695 51.4933 61.2667 51.4957C61.2638 51.4981 61.26 51.5011 61.255 51.5048L61.8467 52.3109ZM61.785 52.3522C61.8003 52.3424 61.8157 52.3323 61.8299 52.3227L61.2718 51.493C61.2644 51.4979 61.2557 51.5037 61.2464 51.5096L61.785 52.3522ZM61.7393 52.3807C61.7548 52.3713 61.7703 52.3616 61.785 52.3522L61.2464 51.5096C61.2375 51.5153 61.2289 51.5207 61.2214 51.5252L61.7393 52.3807ZM61.7005 52.4021C61.7046 52.3998 61.7058 52.3992 61.7056 52.3993L61.2551 51.5066C61.2407 51.5138 61.2282 51.5206 61.2185 51.5259L61.7005 52.4021ZM61.6895 52.4082C61.6945 52.4054 61.6977 52.4036 61.7006 52.402L61.2184 51.526C61.2117 51.5296 61.2054 51.5332 61.2008 51.5357L61.6895 52.4082ZM61.6068 52.4513C61.6439 52.434 61.6757 52.4159 61.6895 52.4082L61.2008 51.5358C61.1922 51.5406 61.1884 51.5427 61.1852 51.5444C61.1826 51.5458 61.1827 51.5456 61.1845 51.5448L61.6068 52.4513ZM61.5526 52.4751C61.5713 52.4676 61.5949 52.4575 61.6209 52.4444L61.1704 51.5516C61.1774 51.5481 61.1815 51.5465 61.1803 51.547L61.5526 52.4751ZM61.505 52.4932C61.5148 52.4896 61.5333 52.4829 61.5527 52.4751L61.1802 51.5471C61.178 51.5479 61.1745 51.5493 61.1621 51.5538L61.505 52.4932ZM61.4872 52.4998C61.4908 52.4984 61.4952 52.4967 61.505 52.4932L61.1621 51.5538C61.1538 51.5568 61.14 51.5618 61.1254 51.5675L61.4872 52.4998ZM61.489 52.4991C61.4925 52.4976 61.4925 52.4976 61.492 52.4978C61.4911 52.4982 61.4878 52.4995 61.4831 52.5013L61.1295 51.566C61.109 51.5737 61.0912 51.5816 61.087 51.5835L61.489 52.4991ZM61.4501 52.5153C61.4685 52.5082 61.4846 52.501 61.4888 52.4992L61.0872 51.5834C61.084 51.5848 61.0838 51.5849 61.084 51.5848C61.0846 51.5845 61.0872 51.5834 61.0912 51.5819L61.4501 52.5153ZM61.3592 52.5429C61.3966 52.5345 61.4275 52.5239 61.4499 52.5154L61.0914 51.5818C61.1007 51.5782 61.1179 51.5722 61.1405 51.5671L61.3592 52.5429ZM61.2369 52.5562C61.2376 52.5562 61.2998 52.5581 61.3723 52.5398L61.1274 51.5702C61.1905 51.5543 61.2445 51.5562 61.2369 51.5562V52.5562ZM61.2356 52.5562H61.2369V51.5562H61.2356V52.5562ZM61.3461 52.5422C61.2889 52.5566 61.2424 52.5562 61.2372 52.5562L61.2341 51.5562C61.2214 51.5562 61.1675 51.556 61.1019 51.5725L61.3461 52.5422ZM60.9982 52.5882C61.127 52.5882 61.2453 52.5685 61.35 52.5412L61.098 51.5735C61.0569 51.5842 61.0247 51.5882 60.9982 51.5882V52.5882ZM60.8548 52.1048C61.0567 52.5622 61.0565 52.5623 61.0562 52.5624C61.0562 52.5625 61.0559 52.5626 61.0558 52.5626C61.0555 52.5628 61.0552 52.5629 61.0549 52.563C61.0542 52.5633 61.0536 52.5636 61.053 52.5638C61.0518 52.5644 61.0506 52.5649 61.0494 52.5654C61.047 52.5664 61.0447 52.5674 61.0424 52.5683C61.0378 52.5702 61.0333 52.5719 61.0291 52.5734C61.0207 52.5765 61.013 52.579 61.0062 52.5811C60.9927 52.5851 60.9827 52.5873 60.977 52.5883C60.9659 52.5904 60.9712 52.5882 60.9982 52.5882V51.5882C60.9194 51.5882 60.853 51.5944 60.7966 51.6047C60.7683 51.6099 60.7423 51.6162 60.7184 51.6234C60.7064 51.627 60.695 51.6308 60.684 51.6348C60.6786 51.6368 60.6733 51.6389 60.668 51.641C60.6654 51.642 60.6629 51.6431 60.6603 51.6442C60.6591 51.6447 60.6578 51.6453 60.6566 51.6458C60.6559 51.6461 60.6553 51.6463 60.6547 51.6466C60.6544 51.6467 60.6541 51.6469 60.6537 51.647C60.6536 51.6471 60.6534 51.6472 60.6533 51.6472C60.653 51.6473 60.6528 51.6474 60.8548 52.1048ZM61.1607 52.7171C61.1861 52.6352 61.2156 52.5403 61.2435 52.4604C61.2576 52.42 61.2688 52.3907 61.2766 52.3723C61.2805 52.3631 61.2813 52.3621 61.279 52.3665C61.2777 52.369 61.2742 52.3755 61.2684 52.3846C61.2631 52.3928 61.252 52.4097 61.2346 52.4299L60.4749 51.7797C60.4076 51.8584 60.3686 51.9522 60.3568 51.9799C60.3362 52.0282 60.3165 52.0817 60.2993 52.131C60.2647 52.2303 60.23 52.3422 60.2056 52.4206L61.1607 52.7171ZM61.1559 52.7326L61.1606 52.7172L60.2057 52.4205L60.2009 52.4359L61.1559 52.7326ZM58.5618 54.9116C59.4941 54.9116 60.117 54.5299 60.5198 54.0367C60.9014 53.5693 61.066 53.0231 61.1561 52.7319L60.2007 52.4365C60.1073 52.7387 59.9885 53.1062 59.7452 53.4042C59.523 53.6763 59.1793 53.9116 58.5618 53.9116V54.9116ZM55.6943 53.1714C56.1682 53.8106 56.9618 54.9116 58.5618 54.9116V53.9116C57.5106 53.9116 56.9872 53.2363 56.4976 52.5758L55.6943 53.1714ZM55.6907 53.1666L55.6941 53.1712L56.4977 52.576L56.4943 52.5714L55.6907 53.1666ZM55.1306 52.5882C55.1731 52.5882 55.1882 52.5932 55.1927 52.5948C55.197 52.5963 55.2136 52.6025 55.2487 52.6318C55.3362 52.7049 55.4577 52.8494 55.6896 53.165L56.4955 52.573C56.2757 52.2738 56.0857 52.028 55.8898 51.8643C55.6548 51.6681 55.4127 51.5882 55.1306 51.5882V52.5882ZM54.5704 53.1643C54.8039 52.8493 54.9255 52.7049 55.0134 52.6316C55.0485 52.6022 55.065 52.5961 55.069 52.5947C55.0733 52.5932 55.0881 52.5882 55.1306 52.5882V51.5882C54.8483 51.5882 54.6069 51.6682 54.3725 51.8639C54.1775 52.0267 53.9874 52.2715 53.7671 52.5688L54.5704 53.1643ZM54.567 53.1689L54.5704 53.1644L53.7671 52.5687L53.7638 52.5733L54.567 53.1689ZM51.6971 54.9092C53.2992 54.9092 54.0929 53.8084 54.567 53.1689L53.7637 52.5733C53.2743 53.2335 52.7508 53.9092 51.6971 53.9092V54.9092ZM48.8295 53.1689C49.3034 53.8082 50.0971 54.9092 51.6971 54.9092V53.9092C50.6458 53.9092 50.1225 53.2338 49.6328 52.5734L48.8295 53.1689ZM48.8262 53.1645L48.8296 53.169L49.6327 52.5732L49.6293 52.5686L48.8262 53.1645ZM48.2659 52.5882C48.3084 52.5882 48.3235 52.5932 48.3282 52.5948C48.3326 52.5964 48.3493 52.6026 48.3844 52.6319C48.4719 52.7048 48.5935 52.849 48.8253 53.1633L49.6301 52.5698C49.4104 52.2719 49.2204 52.0268 49.0245 51.8636C48.7897 51.668 48.5478 51.5882 48.2659 51.5882V52.5882ZM47.7062 53.166C47.9392 52.8504 48.0616 52.7053 48.1496 52.6318C48.185 52.6022 48.2017 52.596 48.2057 52.5946C48.2099 52.5931 48.2243 52.5882 48.2659 52.5882V51.5882C47.984 51.5882 47.7427 51.6687 47.5085 51.8644C47.3131 52.0276 47.1226 52.2729 46.9018 52.572L47.7062 53.166ZM44.8347 54.9116C46.4381 54.9116 47.234 53.806 47.7063 53.1658L46.9016 52.5721C46.4144 53.2325 45.8886 53.9116 44.8347 53.9116V54.9116ZM41.9647 53.1713C42.4389 53.8109 43.2324 54.9116 44.8347 54.9116V53.9116C43.7809 53.9116 43.2575 53.236 42.768 52.5758L41.9647 53.1713ZM41.9613 53.1668L41.9647 53.1714L42.768 52.5758L42.7646 52.5712L41.9613 53.1668ZM41.4011 52.5906C41.4436 52.5906 41.4588 52.5956 41.4634 52.5973C41.4678 52.5988 41.4845 52.6051 41.5196 52.6343C41.6072 52.7073 41.7287 52.8514 41.9606 53.1658L42.7654 52.5722C42.5457 52.2743 42.3556 52.0292 42.1598 51.8661C41.925 51.6704 41.6831 51.5906 41.4011 51.5906V52.5906ZM40.8409 53.1667C41.0744 52.8517 41.196 52.7073 41.2838 52.634C41.319 52.6046 41.3354 52.5986 41.3395 52.5971C41.3437 52.5956 41.3586 52.5906 41.4011 52.5906V51.5906C41.1187 51.5906 40.8773 51.6707 40.6429 51.8664C40.4479 52.0292 40.2579 52.274 40.0375 52.5712L40.8409 53.1667ZM37.9699 54.9116C39.5759 54.9116 40.3694 53.8057 40.8416 53.1658L40.0369 52.5721C39.5495 53.2328 39.026 53.9116 37.9699 53.9116V54.9116ZM35.1023 53.1714C35.5762 53.8106 36.3699 54.9116 37.9699 54.9116V53.9116C36.9186 53.9116 36.3953 53.2363 35.9056 52.5758L35.1023 53.1714ZM35.099 53.1668L35.1024 53.1714L35.9056 52.5757L35.9021 52.5711L35.099 53.1668ZM34.5387 52.5906C34.5812 52.5906 34.5963 52.5956 34.601 52.5973C34.6054 52.5988 34.6221 52.6051 34.6572 52.6343C34.7448 52.7073 34.8663 52.8514 35.0982 53.1658L35.9029 52.5722C35.6833 52.2743 35.4932 52.0292 35.2973 51.8661C35.0625 51.6704 34.8207 51.5906 34.5387 51.5906V52.5906ZM33.979 53.1684C34.212 52.8529 34.3344 52.7078 34.4224 52.6342C34.4578 52.6046 34.4745 52.5985 34.4786 52.597C34.4827 52.5955 34.4971 52.5906 34.5387 52.5906V51.5906C34.2568 51.5906 34.0155 51.6711 33.7813 51.8668C33.5859 52.03 33.3954 52.2753 33.1746 52.5744L33.979 53.1684ZM31.1075 54.914C32.711 54.914 33.5068 53.8085 33.9791 53.1683L33.1744 52.5746C32.6872 53.2349 32.1614 53.914 31.1075 53.914V54.914ZM28.2399 53.1738C28.7138 53.813 29.5074 54.914 31.1075 54.914V53.914C30.0562 53.914 29.5328 53.2387 29.0432 52.5782L28.2399 53.1738ZM28.2365 53.1693L28.2399 53.1739L29.0431 52.5781L29.0397 52.5736L28.2365 53.1693ZM27.6762 52.593C27.7188 52.593 27.7339 52.5981 27.7385 52.5997C27.743 52.6013 27.7597 52.6075 27.7948 52.6367C27.8823 52.7097 28.0039 52.8538 28.2357 53.1682L29.0405 52.5746C28.8208 52.2767 28.6308 52.0317 28.4349 51.8685C28.2001 51.6728 27.9582 51.593 27.6762 51.593V52.593ZM27.1166 53.1709C27.3496 52.8553 27.4719 52.7102 27.56 52.6367C27.5954 52.6071 27.6121 52.6009 27.6161 52.5994C27.6203 52.598 27.6347 52.593 27.6762 52.593V51.593C27.3944 51.593 27.1531 51.6735 26.9188 51.8692C26.7235 52.0324 26.533 52.2777 26.3121 52.5768L27.1166 53.1709ZM24.245 54.9165C25.8485 54.9165 26.6444 53.8109 27.1167 53.1707L26.312 52.577C25.8248 53.2373 25.2989 53.9165 24.245 53.9165V54.9165ZM22.7918 54.2567C23.1593 54.6824 23.6819 54.9165 24.245 54.9165V53.9165C23.9661 53.9165 23.7221 53.8041 23.5487 53.6032L22.7918 54.2567ZM22.4206 49.7869C22.2866 50.7964 22.1796 51.667 22.1959 52.3834C22.2124 53.1037 22.3537 53.7529 22.793 54.258L23.5476 53.6019C23.3307 53.3524 23.2098 52.9811 23.1957 52.3606C23.1814 51.7361 23.2756 50.9454 23.4119 49.9186L22.4206 49.7869ZM22.4251 49.7525L22.4205 49.7878L23.412 49.9177L23.4167 49.8825L22.4251 49.7525ZM22.6181 47.455C22.6379 47.6766 22.6183 48.0518 22.5753 48.4945C22.5334 48.926 22.4736 49.3828 22.4251 49.7525L23.4167 49.8825C23.4648 49.5154 23.5269 49.0421 23.5707 48.5911C23.6133 48.1511 23.6431 47.6913 23.6142 47.3664L22.6181 47.455ZM18.0203 54.1183C18.6533 52.8535 19.5815 51.3496 20.5613 50.1258C21.0513 49.5138 21.5453 48.983 22.0131 48.5888C22.4898 48.187 22.8968 47.9636 23.2129 47.9013L23.0195 46.9201C22.4572 47.031 21.8938 47.3815 21.3687 47.8241C20.8345 48.2743 20.2951 48.8582 19.7806 49.5008C18.7515 50.7862 17.7865 52.351 17.1261 53.6707L18.0203 54.1183ZM16.7336 54.9166C17.2753 54.9166 17.7764 54.6106 18.0212 54.1164L17.1252 53.6725C17.0501 53.824 16.8975 53.9166 16.7336 53.9166V54.9166ZM16.6146 54.9103C16.6697 54.9172 16.7199 54.9166 16.7336 54.9166V53.9166C16.7286 53.9166 16.7259 53.9166 16.7235 53.9166C16.7213 53.9166 16.7207 53.9165 16.7212 53.9166C16.7219 53.9166 16.729 53.9168 16.7398 53.9182L16.6146 54.9103ZM15.3785 53.9605C15.5727 54.5049 16.0733 54.8806 16.6487 54.9134L16.7057 53.915C16.5332 53.9052 16.3801 53.792 16.3203 53.6245L15.3785 53.9605ZM15.2861 44.576C14.2221 46.2214 14.2286 48.4645 14.4808 50.2769C14.7366 52.1153 15.2655 53.6456 15.3787 53.9612L16.32 53.6237C16.2169 53.3361 15.7134 51.8794 15.4713 50.1391C15.2255 48.3726 15.2685 46.4448 16.1258 45.119L15.2861 44.576ZM19.0505 42.5021C17.4249 42.6082 16.1037 43.314 15.2863 44.5756L16.1256 45.1194C16.7474 44.1595 17.7592 43.5885 19.1156 43.5L19.0505 42.5021ZM20.6211 42.0984C20.6418 42.0477 20.6227 42.1362 20.3373 42.2535C20.0775 42.3602 19.6621 42.4618 19.0501 42.5022L19.1159 43.5C19.7997 43.4549 20.3286 43.3381 20.7173 43.1785C21.0804 43.0293 21.414 42.8034 21.5475 42.475L20.6211 42.0984ZM20.3998 41.8136C20.502 41.9305 20.5624 42.0351 20.5903 42.108C20.6041 42.1439 20.6064 42.1628 20.6065 42.1651C20.6068 42.1678 20.6039 42.1408 20.6211 42.0984L21.5475 42.475C21.6542 42.2125 21.5977 41.9422 21.5242 41.7504C21.4452 41.544 21.314 41.34 21.1528 41.1555L20.3998 41.8136ZM16.8588 41.0056C18.4674 40.5644 19.832 41.1618 20.3992 41.813L21.1533 41.1561C20.3188 40.1983 18.5509 39.5046 16.5943 40.0412L16.8588 41.0056ZM11.0333 48.1092C11.4796 46.4666 12.3695 44.8345 13.4469 43.534C14.5322 42.224 15.7616 41.305 16.8582 41.0058L16.595 40.041C15.2198 40.4162 13.8281 41.5063 12.6769 42.896C11.5178 44.2951 10.5557 46.0531 10.0683 47.847L11.0333 48.1092ZM11.5666 52.458C11.0131 51.8847 10.7897 51.1157 10.7549 50.3044C10.7201 49.4928 10.8769 48.6872 11.0335 48.1087L10.0682 47.8475C9.89785 48.4769 9.71485 49.3931 9.75583 50.3473C9.79681 51.3017 10.0649 52.3423 10.8472 53.1525L11.5666 52.458ZM11.5387 54.5049C12.1054 53.9476 12.1195 53.034 11.5677 52.459L10.8462 53.1515C11.0187 53.3312 11.014 53.6184 10.8375 53.792L11.5387 54.5049ZM9.49746 54.4769C10.0551 55.0542 10.9659 55.0648 11.5376 54.5061L10.8386 53.7909C10.6625 53.9631 10.388 53.9595 10.2167 53.7821L9.49746 54.4769ZM8.25277 47.3464C7.47464 50.2117 7.85887 52.7813 9.49752 54.477L10.2166 53.782C8.90619 52.426 8.49553 50.2681 9.21781 47.6085L8.25277 47.3464ZM16.1034 38.2092C14.2357 38.7183 12.5215 40.1055 11.1643 41.781C9.80254 43.4622 8.75785 45.4849 8.25274 47.3465L9.21784 47.6084C9.68382 45.891 10.6604 43.9919 11.9414 42.4105C13.227 40.8234 14.7771 39.6072 16.3664 39.174L16.1034 38.2092ZM22.5665 39.9035C21.3316 38.4856 18.8651 37.4559 16.1033 38.2092L16.3665 39.174C18.755 38.5224 20.8273 39.4292 21.8124 40.5603L22.5665 39.9035ZM23.2869 43.2033C23.7405 42.099 23.4272 40.8889 22.566 39.903L21.8129 40.5608C22.4897 41.3357 22.6374 42.1525 22.3619 42.8234L23.2869 43.2033ZM19.238 45.3966C20.5062 45.3132 21.418 45.0184 22.0689 44.6081C22.7253 44.1944 23.0912 43.6789 23.2868 43.2036L22.3621 42.823C22.2402 43.119 22.0052 43.4662 21.5357 43.7621C21.0607 44.0615 20.3216 44.3232 19.1723 44.3988L19.238 45.3966ZM17.7032 46.1595C17.9892 45.7188 18.4521 45.4484 19.238 45.3966L19.1723 44.3988C18.1567 44.4657 17.3638 44.8455 16.8644 45.6151L17.7032 46.1595ZM17.5241 50.9142C17.3484 50.0683 17.2192 49.1301 17.227 48.2657C17.2349 47.3891 17.3835 46.6536 17.7036 46.159L16.864 45.6157C16.3916 46.3457 16.2356 47.3081 16.227 48.2566C16.2184 49.2172 16.3608 50.2311 16.545 51.1176L17.5241 50.9142ZM23.5011 44.9912C22.0049 44.9441 20.6156 45.8817 19.4759 47.0109C18.3191 48.1571 17.323 49.5969 16.6091 50.7532L17.4599 51.2786C18.1571 50.1495 19.1048 48.7864 20.1798 47.7213C21.2719 46.6393 22.4025 45.9571 23.4696 45.9907L23.5011 44.9912ZM24.9205 45.6809C24.5643 45.254 24.056 45.0103 23.5026 44.9913L23.4682 45.9907C23.7426 46.0001 23.9822 46.1172 24.1527 46.3216L24.9205 45.6809ZM25.4742 47.1769C25.422 46.618 25.2725 46.0995 24.9193 45.6794L24.1539 46.323C24.3275 46.5294 24.4367 46.8226 24.4785 47.27L25.4742 47.1769ZM34.1682 43.9184C29.1165 44.4331 26.509 45.5988 24.6987 46.8076L25.254 47.6392C26.9054 46.5366 29.35 45.4144 34.2696 44.9133L34.1682 43.9184ZM39.0523 9.01286C38.5321 9.63158 28.2773 22.2295 33.7332 44.5347L34.7046 44.2971C29.3516 22.4126 39.4161 10.1341 39.8177 9.6564L39.0523 9.01286ZM39.1347 8.93382C39.1327 8.93539 39.107 8.95529 39.0799 8.98266L39.7902 9.6866C39.7798 9.69702 39.7709 9.70491 39.7651 9.70987C39.7601 9.71414 39.7559 9.71741 39.7587 9.71524L39.1347 8.93382ZM39.0596 9.01264C39.0811 8.98375 39.102 8.96278 39.1165 8.9495C39.1287 8.93834 39.1396 8.9299 39.1346 8.93383L39.7587 9.71524C39.759 9.71499 39.7749 9.70249 39.7919 9.68694C39.8112 9.66927 39.8366 9.64358 39.8622 9.60915L39.0596 9.01264ZM39.2232 8.84759C39.1825 8.88236 39.1382 8.92292 39.092 8.97344L39.8299 9.64835C39.8401 9.63717 39.8522 9.62551 39.8726 9.60808L39.2232 8.84759ZM39.3276 8.76314C39.2704 8.80161 39.2261 8.84228 39.1928 8.87589L39.9031 9.57977C39.9074 9.57542 39.9007 9.58286 39.8858 9.59285L39.3276 8.76314ZM39.4495 8.68954C39.4218 8.70514 39.3757 8.7308 39.3276 8.76313L39.8858 9.59286C39.8955 9.5863 39.9072 9.57945 39.9399 9.56108L39.4495 8.68954ZM39.4692 8.67847L39.449 8.68986L39.9404 9.56076L39.9606 9.54937L39.4692 8.67847ZM39.5691 8.62447C39.5106 8.65068 39.4629 8.68173 39.4482 8.69101L39.9816 9.53682C39.9867 9.53365 39.9894 9.53191 39.9919 9.53038C39.9942 9.529 39.9949 9.52859 39.9946 9.52874C39.9941 9.52903 39.9881 9.53251 39.9783 9.53691L39.5691 8.62447ZM39.7878 8.55079C39.7211 8.56762 39.6512 8.58949 39.5782 8.62051L39.9692 9.54087C39.9856 9.53391 40.005 9.52731 40.0324 9.52041L39.7878 8.55079ZM39.7836 8.55273C39.7763 8.55519 39.7812 8.55345 39.788 8.55148C39.7958 8.54923 39.814 8.54428 39.8387 8.54071L39.9814 9.53048C40.0454 9.52126 40.1002 9.50129 40.1024 9.50054L39.7836 8.55273ZM39.7791 8.55426L39.7791 8.55428L40.107 9.49899L40.107 9.49897L39.7791 8.55426ZM39.821 8.54092C39.8032 8.54604 39.7873 8.55148 39.7837 8.5527L40.1024 9.50054C40.1056 9.49947 40.1058 9.49942 40.1055 9.49951C40.105 9.49968 40.1021 9.50059 40.098 9.5018L39.821 8.54092ZM40.157 8.5C40.0538 8.5 39.9512 8.51081 39.8501 8.53348L40.0689 9.50924C40.0948 9.50343 40.1239 9.5 40.157 9.5V8.5ZM40.3129 8.50504L40.1741 8.50029L40.1399 9.49971L40.2787 9.50445L40.3129 8.50504ZM41.3965 9.0185C41.1222 8.69075 40.7205 8.50475 40.2958 8.50475V9.50475C40.4261 9.50475 40.5464 9.56082 40.6296 9.66025L41.3965 9.0185ZM46.7622 44.3648C52.1207 22.1673 41.916 9.6334 41.395 9.0167L40.6311 9.66205C41.0319 10.1365 51.0474 22.3518 45.7902 44.1301L46.7622 44.3648ZM62.4024 50.7719C62.3422 50.5483 61.8386 48.9866 59.5665 47.3825C57.301 45.783 53.308 44.1625 46.3057 43.7483L46.2467 44.7466C53.1241 45.1534 56.9199 46.738 58.9897 48.1994C61.053 49.6561 61.4312 51.0112 61.4368 51.032L62.4024 50.7719ZM62.4097 50.8127C62.4147 50.8328 62.417 50.8484 62.418 50.8552C62.4185 50.859 62.4189 50.8618 62.419 50.8629C62.4191 50.8637 62.4192 50.8643 62.419 50.8626C62.4189 50.8616 62.4185 50.8584 62.4181 50.8549C62.4177 50.8512 62.417 50.8457 62.4161 50.8394C62.4144 50.8274 62.4111 50.8067 62.405 50.7818L61.4343 51.0221C61.4293 51.002 61.4269 50.9864 61.426 50.9796C61.4254 50.9758 61.4251 50.973 61.425 50.9719C61.4249 50.9711 61.4248 50.9705 61.425 50.9722C61.4251 50.9732 61.4255 50.9764 61.4259 50.9799C61.4263 50.9836 61.427 50.989 61.4279 50.9954C61.4296 51.0074 61.4328 51.0281 61.439 51.0529L62.4097 50.8127ZM62.4327 50.95L62.4186 50.8575L61.43 51.0082L61.4442 51.1007L62.4327 50.95ZM62.4479 51.1251C62.4479 51.0507 62.4373 50.9824 62.4335 50.9553L61.4434 51.0955C61.4446 51.1041 61.4455 51.1103 61.4462 51.1161C61.447 51.1216 61.4474 51.1254 61.4477 51.128C61.4483 51.1335 61.4479 51.1316 61.4479 51.1251H62.4479ZM62.4461 51.0867C62.4468 51.0944 62.4479 51.1079 62.4479 51.1251H61.4479C61.4479 51.1468 61.4491 51.165 61.4503 51.1772L62.4461 51.0867ZM62.4459 51.0831L62.445 51.0757L61.4514 51.1882L61.4522 51.1955L62.4459 51.0831ZM62.448 51.1032C62.4468 51.0904 62.4454 51.079 62.4452 51.0779L61.4528 51.2007C61.453 51.2023 61.4529 51.2014 61.4527 51.2001C61.4526 51.1986 61.4522 51.1952 61.4518 51.1907L62.448 51.1032ZM62.4502 51.1535C62.4502 51.1325 62.449 51.1151 62.448 51.1035L61.4518 51.1904C61.4512 51.1832 61.4502 51.1702 61.4502 51.1535H62.4502ZM62.4482 51.2082C62.4493 51.1922 62.4502 51.1739 62.4502 51.1535H61.4502C61.4502 51.1458 61.4505 51.1397 61.4508 51.1357L62.4482 51.2082ZM62.4423 51.2647C62.4434 51.2563 62.4464 51.2335 62.4482 51.2081L61.4508 51.1357C61.4511 51.1323 61.4513 51.1305 61.4512 51.1313C61.4511 51.1325 61.4508 51.1344 61.4501 51.1402L62.4423 51.2647ZM62.4417 51.2701L62.4424 51.2644L61.4501 51.1405L61.4494 51.1462L62.4417 51.2701ZM62.444 51.2468L62.4443 51.2434L61.4468 51.1728L61.4465 51.1762L62.444 51.2468ZM62.4228 51.414C62.4381 51.3421 62.4422 51.2725 62.444 51.2467L61.4465 51.1763C61.4459 51.1847 61.4455 51.1907 61.445 51.1965C61.4446 51.2021 61.4442 51.2059 61.4439 51.2087C61.4433 51.2149 61.4432 51.213 61.4447 51.2063L62.4228 51.414ZM62.4199 51.4304C62.4223 51.4186 62.4248 51.4056 62.4271 51.3916L61.4404 51.2287C61.4403 51.2292 61.4401 51.2306 61.4396 51.2332L62.4199 51.4304ZM62.4138 51.4593C62.4158 51.4504 62.4179 51.4407 62.4199 51.4306L61.4396 51.233C61.4392 51.2349 61.4387 51.2374 61.438 51.2406L62.4138 51.4593ZM62.4002 51.5159C62.4038 51.5015 62.4089 51.4809 62.4138 51.4593L61.438 51.2406C61.436 51.2494 61.4336 51.2592 61.4296 51.2753L62.4002 51.5159ZM62.3898 51.5531L62.3946 51.5366L61.4352 51.2546L61.4304 51.2711L62.3898 51.5531ZM62.3879 51.5599L62.3912 51.5483L61.429 51.2759L61.4257 51.2875L62.3879 51.5599ZM62.3489 51.6766C62.3701 51.6251 62.3835 51.5754 62.3881 51.5592L61.4255 51.2882C61.4239 51.2938 61.4229 51.2974 61.422 51.3006C61.4211 51.3037 61.4206 51.3053 61.4204 51.306C61.4199 51.3075 61.4213 51.3029 61.4245 51.295L62.3489 51.6766ZM43.5289 46.6712H41.0972V47.6712H43.5289V46.6712ZM40.6649 13.1055C43.3613 17.7446 48.3565 29.515 43.0504 47.0262L44.0074 47.3162C49.4116 29.4813 44.3315 17.4238 41.5295 12.603L40.6649 13.1055ZM41.5972 47.1712V12.8543H40.5972V47.1712H41.5972ZM39.7158 47.1712V13.1034H38.7158V47.1712H39.7158ZM36.9229 47.6712H39.2158V46.6712H36.9229V47.6712ZM38.7806 12.8573C35.9589 17.8486 31.1448 29.8282 36.4444 47.3162L37.4014 47.0262C32.1981 29.8559 36.9321 18.1592 39.6511 13.3494L38.7806 12.8573ZM58.4154 51.8811L58.4106 51.8966L59.3657 52.1928L59.3705 52.1773L58.4154 51.8811ZM58.9573 52.525L58.958 52.5249L58.8278 51.5335L58.8271 51.5336L58.9573 52.525ZM59.3225 50.3047C58.7431 50.8181 58.5234 51.5309 58.4147 51.881L59.3697 52.1776C59.4821 51.8156 59.6385 51.3608 59.9858 51.0531L59.3225 50.3047ZM45.765 46.624C55.2183 47.1156 58.3402 49.8128 59.2606 50.9873L60.0477 50.3705C58.885 48.8869 55.4362 46.1256 45.8169 45.6253L45.765 46.624ZM45.5927 48.5631C45.8394 47.783 46.0646 47.0151 46.273 46.2572L45.3088 45.992C45.1034 46.7388 44.8818 47.4946 44.6392 48.2617L45.5927 48.5631ZM44.22 49.5745C44.8509 49.5745 45.4033 49.1615 45.5927 48.5633L44.6393 48.2615C44.5793 48.4512 44.4074 48.5745 44.22 48.5745V49.5745ZM36.2291 49.5745H44.22V48.5745H36.2291V49.5745ZM34.8564 48.5632C35.0456 49.1616 35.5981 49.5745 36.2291 49.5745V48.5745C36.0416 48.5745 35.8698 48.4512 35.8098 48.2616L34.8564 48.5632ZM34.2235 46.4155C34.4198 47.1195 34.6282 47.8342 34.8559 48.5618L35.8102 48.2631C35.5864 47.5477 35.3809 46.8432 35.1868 46.147L34.2235 46.4155ZM25.1496 50.0714C25.9622 49.4369 26.8744 48.7636 28.3156 48.1732C29.7625 47.5805 31.7646 47.0628 34.7524 46.779L34.6579 45.7835C31.5993 46.074 29.4964 46.6088 27.9365 47.2478C26.3711 47.8892 25.3749 48.6268 24.5342 49.2833L25.1496 50.0714ZM25.3166 49.9066C25.3236 49.8507 25.3305 49.7968 25.3376 49.7428L24.3462 49.6119C24.3387 49.669 24.3315 49.7256 24.3245 49.7811L25.3166 49.9066ZM25.2807 50.1807C25.2941 50.0844 25.3056 49.9932 25.3166 49.9066L24.3245 49.7811C24.3134 49.8685 24.3026 49.9536 24.2902 50.0426L25.2807 50.1807ZM25.0802 52.4174C25.0549 51.9049 25.1863 50.8936 25.2811 50.1772L24.2898 50.046C24.2012 50.7156 24.0504 51.8402 24.0815 52.4669L25.0802 52.4174ZM24.8057 51.4509C24.5081 51.8564 24.393 51.9722 24.3254 52.0123L24.8363 52.872C25.1121 52.7081 25.3451 52.4061 25.6119 52.0427L24.8057 51.4509ZM24.8104 51.4446L24.8071 51.4491L25.6105 52.0445L25.6139 52.0399L24.8104 51.4446ZM27.6805 49.7042C26.0783 49.7042 25.2847 50.8049 24.8105 51.4445L25.6138 52.0401C26.1033 51.3799 26.6267 50.7042 27.6805 50.7042V49.7042ZM30.5481 51.4444C30.0741 50.8052 29.2805 49.7042 27.6805 49.7042V50.7042C28.7317 50.7042 29.2551 51.3795 29.7447 52.04L30.5481 51.4444ZM30.5514 51.449L30.548 51.4444L29.7448 52.0401L29.7482 52.0447L30.5514 51.449ZM31.1117 52.0252C31.0692 52.0252 31.054 52.0202 31.0494 52.0185C31.045 52.017 31.0283 52.0107 30.9932 51.9815C30.9056 51.9085 30.7841 51.7644 30.5522 51.45L29.7474 52.0436C29.9671 52.3415 30.1572 52.5866 30.353 52.7497C30.5878 52.9454 30.8297 53.0252 31.1117 53.0252V52.0252ZM31.6719 51.4491C31.4384 51.7641 31.3168 51.9085 31.229 51.9818C31.1938 52.0112 31.1773 52.0172 31.1733 52.0187C31.169 52.0202 31.1542 52.0252 31.1117 52.0252V53.0252C31.394 53.0252 31.6355 52.9451 31.8699 52.7494C32.0648 52.5866 32.2549 52.3418 32.4752 52.0446L31.6719 51.4491ZM31.6752 51.4446L31.6718 51.4491L32.4753 52.0445L32.4787 52.0399L31.6752 51.4446ZM34.5452 49.7042C32.9431 49.7042 32.1494 50.8049 31.6753 51.4445L32.4786 52.0401C32.968 51.3799 33.4915 50.7042 34.5452 50.7042V49.7042ZM37.4128 51.4444C36.9389 50.8052 36.1453 49.7042 34.5452 49.7042V50.7042C35.5965 50.7042 36.1199 51.3795 36.6095 52.04L37.4128 51.4444ZM37.4162 51.449L37.4128 51.4444L36.6096 52.0401L36.613 52.0447L37.4162 51.449ZM37.9765 52.0252C37.9349 52.0252 37.9204 52.0203 37.9161 52.0187C37.9119 52.0172 37.8951 52.011 37.8597 51.9815C37.7716 51.9081 37.6493 51.7634 37.4162 51.449L36.6129 52.0446C36.8337 52.3424 37.0242 52.587 37.2195 52.7497C37.4536 52.9448 37.6947 53.0252 37.9765 53.0252V52.0252ZM38.5367 51.4491C38.3031 51.7641 38.1816 51.9085 38.0937 51.9818C38.0586 52.0112 38.0421 52.0172 38.038 52.0187C38.0338 52.0202 38.019 52.0252 37.9765 52.0252V53.0252C38.2588 53.0252 38.5002 52.9451 38.7346 52.7494C38.9296 52.5866 39.1196 52.3418 39.34 52.0446L38.5367 51.4491ZM41.4077 49.7042C39.8017 49.7042 39.0081 50.8101 38.536 51.45L39.3407 52.0437C39.8281 51.383 40.3516 50.7042 41.4077 50.7042V49.7042ZM44.2752 51.4444C43.8013 50.8052 43.0077 49.7042 41.4077 49.7042V50.7042C42.4589 50.7042 42.9823 51.3795 43.4719 52.04L44.2752 51.4444ZM44.2788 51.4492L44.2754 51.4446L43.4718 52.0398L43.4752 52.0444L44.2788 51.4492ZM44.8412 52.0276C44.7987 52.0276 44.7836 52.0226 44.779 52.021C44.7746 52.0194 44.7578 52.0132 44.7225 51.9837C44.6345 51.9103 44.5123 51.7655 44.2792 51.4498L43.4748 52.0438C43.6956 52.3429 43.8862 52.5884 44.0822 52.7518C44.3172 52.9477 44.5591 53.0276 44.8412 53.0276V52.0276ZM45.4014 51.4515C45.1679 51.7665 45.0463 51.9109 44.9585 51.9842C44.9233 52.0136 44.9069 52.0196 44.9028 52.0211C44.8986 52.0226 44.8837 52.0276 44.8412 52.0276V53.0276C45.1236 53.0276 45.365 52.9476 45.5994 52.7519C45.7944 52.5891 45.9844 52.3443 46.2048 52.047L45.4014 51.4515ZM45.4048 51.4469L45.4014 51.4515L46.2048 52.047L46.2081 52.0425L45.4048 51.4469ZM48.2748 49.7066C46.6726 49.7066 45.879 50.8074 45.4048 51.4469L46.2081 52.0425C46.6976 51.3823 47.221 50.7066 48.2748 50.7066V49.7066ZM51.1424 51.4469C50.6684 50.8076 49.8748 49.7066 48.2748 49.7066V50.7066C49.3261 50.7066 49.8494 51.382 50.3391 52.0424L51.1424 51.4469ZM51.1457 51.4514L51.1423 51.4468L50.3391 52.0425L50.3425 52.0471L51.1457 51.4514ZM51.706 52.0276C51.6635 52.0276 51.6483 52.0226 51.6437 52.021C51.6393 52.0194 51.6226 52.0132 51.5875 51.9839C51.4999 51.911 51.3784 51.7668 51.1465 51.4525L50.3417 52.046C50.5614 52.3439 50.7515 52.589 50.9473 52.7522C51.1821 52.9478 51.424 53.0276 51.706 53.0276V52.0276ZM52.268 51.4498C52.0349 51.7654 51.9127 51.9103 51.8247 51.9837C51.7894 52.0131 51.7726 52.0194 51.7682 52.021C51.7636 52.0226 51.7485 52.0276 51.706 52.0276V53.0276C51.9882 53.0276 52.2301 52.9477 52.4651 52.7518C52.661 52.5884 52.8516 52.3428 53.0724 52.0438L52.268 51.4498ZM55.1395 49.7042C53.5361 49.7042 52.7402 50.8098 52.2679 51.45L53.0726 52.0437C53.5598 51.3833 54.0856 50.7042 55.1395 50.7042V49.7042ZM58.0095 51.4445C57.5353 50.8049 56.7418 49.7042 55.1395 49.7042V50.7042C56.1933 50.7042 56.7167 51.3798 57.2062 52.04L58.0095 51.4445ZM58.0128 51.449L58.0094 51.4444L57.2062 52.0401L57.2096 52.0447L58.0128 51.449ZM58.5731 52.0252C58.5316 52.0252 58.517 52.0203 58.5128 52.0187C58.5086 52.0172 58.4918 52.011 58.4563 51.9815C58.3683 51.9081 58.246 51.7634 58.0129 51.449L57.2096 52.0446C57.4304 52.3424 57.6209 52.587 57.8162 52.7497C58.0503 52.9448 58.2914 53.0252 58.5731 53.0252V52.0252ZM58.7166 52.5086C58.5146 52.0512 58.5148 52.0511 58.5151 52.051C58.5151 52.051 58.5154 52.0509 58.5155 52.0508C58.5158 52.0507 58.5161 52.0505 58.5164 52.0504C58.5171 52.0501 58.5177 52.0499 58.5183 52.0496C58.5195 52.0491 58.5207 52.0485 58.5219 52.048C58.5243 52.047 58.5266 52.0461 58.5289 52.0451C58.5335 52.0433 58.538 52.0416 58.5422 52.04C58.5506 52.0369 58.5583 52.0344 58.5651 52.0324C58.5786 52.0283 58.5886 52.0262 58.5943 52.0251C58.6054 52.0231 58.6001 52.0252 58.5731 52.0252V53.0252C58.6519 53.0252 58.7183 53.019 58.7748 53.0087C58.8031 53.0035 58.8291 52.9972 58.853 52.99C58.8649 52.9864 58.8764 52.9826 58.8873 52.9786C58.8927 52.9766 58.8981 52.9745 58.9033 52.9724C58.9059 52.9714 58.9085 52.9703 58.911 52.9692C58.9123 52.9687 58.9135 52.9682 58.9148 52.9676C58.9154 52.9674 58.916 52.9671 58.9167 52.9668C58.917 52.9667 58.9173 52.9665 58.9176 52.9664C58.9177 52.9663 58.918 52.9662 58.9181 52.9662C58.9183 52.9661 58.9185 52.966 58.7166 52.5086ZM58.4106 51.8964C58.3852 51.9783 58.3557 52.0731 58.3278 52.1531C58.3137 52.1934 58.3026 52.2228 58.2947 52.2411C58.2908 52.2503 58.29 52.2513 58.2924 52.2469C58.2936 52.2445 58.2972 52.238 58.3029 52.2289C58.3082 52.2206 58.3193 52.2038 58.3367 52.1835L59.0964 52.8337C59.1638 52.755 59.2027 52.6613 59.2145 52.6336C59.2351 52.5852 59.2548 52.5318 59.272 52.4825C59.3066 52.3832 59.3413 52.2714 59.3657 52.1929L58.4106 51.8964Z" fill="#222532"/>
<path d="M9.57739 38.7604C9.45745 38.6157 8.36627 37.3555 6.96935 37.3555C6.32264 37.3555 5.39839 37.6236 4.67172 38.8981L3.86035 40.3221H10.8801L9.57739 38.7604Z" fill="white"/>
<path fill-rule="evenodd" clip-rule="evenodd" d="M4.23738 38.6504C5.05838 37.2105 6.15418 36.8555 6.96936 36.8555C7.81575 36.8555 8.54025 37.2347 9.04453 37.598C9.55239 37.9639 9.8854 38.3485 9.96187 38.4408C9.96206 38.441 9.96168 38.4405 9.96187 38.4408L11.9484 40.8221H3L4.23738 38.6504ZM5.10609 39.1458C5.10607 39.1458 5.10612 39.1457 5.10609 39.1458L4.72073 39.8221H9.81192L9.19346 39.0807L9.19238 39.0794C9.14782 39.0256 8.87566 38.7088 8.45997 38.4093C8.03945 38.1064 7.51989 37.8555 6.96936 37.8555C6.49114 37.8555 5.7384 38.0369 5.10609 39.1458Z" fill="#222532"/>
<path fill-rule="evenodd" clip-rule="evenodd" d="M7.75291 42.1992L8.71948 42.3012L8.59723 43.2742C8.24209 45.9038 5.49528 48.6781 5.3777 48.7968L4.1054 50.0688L3.79027 48.2889C3.41634 46.1957 3.68209 44.5866 4.5781 43.5068C5.83155 41.9951 7.75291 42.1992 7.75291 42.1992ZM6.02439 44.7243C5.85742 44.9237 5.73278 45.1776 5.64576 45.4766L5.64577 45.4767C5.84566 45.1753 6.0385 44.8596 6.20313 44.5416C6.14198 44.5962 6.08083 44.6555 6.02439 44.7243Z" fill="white"/>
<path fill-rule="evenodd" clip-rule="evenodd" d="M7.80511 41.7048C7.80538 41.7019 7.8053 41.7019 7.8053 41.7019L7.80373 41.7018L7.80101 41.7015L7.79345 41.7008L7.77006 41.6988C7.75087 41.6973 7.72456 41.6955 7.69178 41.6939C7.62627 41.6908 7.53456 41.6885 7.42189 41.691C7.19719 41.6961 6.88538 41.7204 6.52974 41.7974C5.81921 41.9513 4.9118 42.3211 4.19333 43.1875M7.80511 41.7048L7.8053 41.7019L9.27917 41.8575L9.09276 43.3412C8.89827 44.7812 8.06262 46.2145 7.30433 47.269C6.5366 48.3366 5.79994 49.081 5.73287 49.1487L5.73123 49.1503L3.78036 51.1009L3.29807 48.3768C2.91181 46.2142 3.16365 44.4285 4.19333 43.1875M6.74137 42.7748C6.1779 42.8968 5.49798 43.1807 4.96301 43.8259C4.20081 44.7445 3.921 46.1774 4.28249 48.201L4.43047 49.0368L5.02254 48.4448L5.02339 48.444C5.0803 48.3865 5.77236 47.6865 6.49245 46.6852C7.22528 45.6661 7.94019 44.3984 8.10144 43.2095L8.15981 42.7449L7.70203 42.6966L7.692 42.6957C7.68243 42.695 7.66624 42.6938 7.64403 42.6928C7.59957 42.6907 7.53139 42.6888 7.44435 42.6908C7.26962 42.6947 7.02275 42.7138 6.74137 42.7748ZM5.63944 44.4052C5.71799 44.3098 5.79924 44.2319 5.87018 44.1686L6.64717 44.7714C6.47184 45.1101 6.26886 45.4418 6.06246 45.753L5.58058 46.4796L5.11158 45.5229L5.16568 45.3369C5.26645 44.9907 5.41805 44.6703 5.63944 44.4052Z" fill="#222532"/>
<path fill-rule="evenodd" clip-rule="evenodd" d="M10.9282 36.916C10.9282 35.6521 11.9473 34.6171 13.2107 34.6171C14.4761 34.6171 15.4957 35.6517 15.4957 36.916C15.4957 38.1807 14.4733 39.2149 13.2107 39.2149C11.9473 39.2149 10.9282 38.1798 10.9282 36.916ZM13.2107 35.6171C12.5082 35.6171 11.9282 36.1958 11.9282 36.916C11.9282 37.6361 12.5082 38.2149 13.2107 38.2149C13.9142 38.2149 14.4957 37.6353 14.4957 36.916C14.4957 36.1962 13.9161 35.6171 13.2107 35.6171ZM13.2107 37.3163C13.4526 37.3163 13.6143 37.1173 13.6143 36.9159C13.6143 36.7739 13.5425 36.6502 13.4437 36.5765C13.3593 36.5136 13.2728 36.4978 13.2119 36.4978C13.2115 36.4978 13.2111 36.4978 13.2107 36.4978C13.1499 36.498 13.064 36.514 12.9801 36.5765C12.8814 36.6502 12.8095 36.7739 12.8095 36.9159C12.8095 37.1332 12.9844 37.3163 13.2107 37.3163ZM12.6143 36.9159C12.6143 36.6054 12.8607 36.3163 13.2107 36.3163C13.5453 36.3163 13.8095 36.5895 13.8095 36.9159C13.8095 37.1126 13.7132 37.2773 13.5779 37.3782C13.4569 37.4684 13.3216 37.4978 13.2119 37.4978C13.1022 37.4978 12.9669 37.4684 12.8459 37.3782C12.7106 37.2773 12.6143 37.1126 12.6143 36.9159Z" fill="#222532"/>
</g>
</g>
<defs>
<filter id="filter0_d_67_110" x="-1" y="8.5" width="67.4502" height="54.4176" filterUnits="userSpaceOnUse" color-interpolation-filters="sRGB">
<feFlood flood-opacity="0" result="BackgroundImageFix"/>
<feColorMatrix in="SourceAlpha" type="matrix" values="0 0 0 0 0 0 0 0 0 0 0 0 0 0 0 0 0 0 127 0" result="hardAlpha"/>
<feOffset dy="4"/>
<feGaussianBlur stdDeviation="2"/>
<feColorMatrix type="matrix" values="0 0 0 0 0 0 0 0 0 0 0 0 0 0 0 0 0 0 0.25 0"/>
<feBlend mode="normal" in2="BackgroundImageFix" result="effect1_dropShadow_67_110"/>
<feBlend mode="normal" in="SourceGraphic" in2="effect1_dropShadow_67_110" result="shape"/>
</filter>
<clipPath id="clip0_67_110">
<rect width="64" height="64" fill="white"/>
</clipPath>
</defs>
</svg>
